<svg width="100" height="100" viewBox="0 0 100 100" fill="none" xmlns="http://www.w3.org/2000/svg">
<path d="M58.7215 40.7996L98.0239 48.3579C100.514 49.3087 100.336 52.1226 97.7778 52.8032L58.7311 60.3808C58.0457 65.1156 57.4955 69.8843 56.6895 74.5998C55.4684 81.7382 54.1121 90.7783 52.2732 97.6465C51.4961 100.542 48.6968 100.875 47.6204 98.0326L40.091 60.3905C27.4938 57.4463 14.7276 55.2502 2.01934 52.8032C-0.548381 52.113 -0.707657 49.3039 1.77318 48.3579C14.4959 45.8867 27.3152 43.8065 39.9028 40.7079C41.4907 33.9652 42.7794 27.1501 44.1212 20.3544C45.2554 14.6108 46.0325 7.86329 47.5239 2.3176C47.8811 0.980648 48.1658 0.102219 49.7393 0.00568844C51.3948 -0.0956688 51.974 1.17371 52.3118 2.51549C54.2135 9.96766 55.7097 19.3746 56.926 27.0488C57.65 31.6098 58.094 36.2288 58.7118 40.7996H58.7215Z" fill="#63FFB1"/>
</svg>
