<svg width="1347" height="1348" viewBox="0 0 1347 1348" fill="none" xmlns="http://www.w3.org/2000/svg">
<g opacity="0.8">
<g style="mix-blend-mode:overlay">
<path d="M42.0981 1262.86C45.4171 1298.94 48.1132 1301.64 84.1934 1304.96C48.1132 1308.28 45.4171 1310.97 42.0981 1347.05C38.779 1310.97 36.0829 1308.28 0.00268555 1304.96C36.0829 1301.64 38.779 1298.94 42.0981 1262.86Z" fill="#63FFB1" fill-opacity="0.8"/>
<path d="M42.0981 1178.67C45.4171 1214.75 48.1132 1217.45 84.1934 1220.77C48.1132 1224.08 45.4171 1226.78 42.0981 1262.86C38.779 1226.78 36.0829 1224.08 0.00268555 1220.77C36.0829 1217.45 38.779 1214.75 42.0981 1178.67Z" fill="#63FFB1" fill-opacity="0.8"/>
<path d="M42.0981 1094.48C45.4171 1130.56 48.1132 1133.26 84.1934 1136.58C48.1132 1139.89 45.4171 1142.59 42.0981 1178.67C38.779 1142.59 36.0829 1139.89 0.00268555 1136.58C36.0829 1133.26 38.779 1130.56 42.0981 1094.48Z" fill="#63FFB1" fill-opacity="0.8"/>
<path d="M42.0981 1010.29C45.4171 1046.37 48.1132 1049.07 84.1934 1052.38C48.1132 1055.7 45.4171 1058.4 42.0981 1094.48C38.779 1058.4 36.0829 1055.7 0.00268555 1052.38C36.0829 1049.07 38.779 1046.37 42.0981 1010.29Z" fill="#63FFB1" fill-opacity="0.8"/>
<path d="M42.0981 926.098C45.4171 962.178 48.1132 964.874 84.1934 968.193C48.1132 971.513 45.4171 974.209 42.0981 1010.29C38.779 974.209 36.0829 971.513 0.00268555 968.193C36.0829 964.874 38.779 962.178 42.0981 926.098Z" fill="#63FFB1" fill-opacity="0.8"/>
<path d="M42.0981 841.907C45.4171 877.988 48.1132 880.684 84.1934 884.003C48.1132 887.322 45.4171 890.018 42.0981 926.098C38.779 890.018 36.0829 887.322 0.00268555 884.003C36.0829 880.684 38.779 877.988 42.0981 841.907Z" fill="#63FFB1" fill-opacity="0.8"/>
<path d="M42.0981 757.716C45.4171 793.797 48.1132 796.493 84.1934 799.812C48.1132 803.131 45.4171 805.827 42.0981 841.907C38.779 805.827 36.0829 803.131 0.00268555 799.812C36.0829 796.493 38.779 793.797 42.0981 757.716Z" fill="#63FFB1" fill-opacity="0.8"/>
<path d="M42.0981 673.526C45.4171 709.606 48.1132 712.302 84.1934 715.621C48.1132 718.94 45.4171 721.636 42.0981 757.717C38.779 721.636 36.0829 718.94 0.00268555 715.621C36.0829 712.302 38.779 709.606 42.0981 673.526Z" fill="#63FFB1" fill-opacity="0.8"/>
<path d="M42.0981 589.335C45.4171 625.415 48.1132 628.111 84.1934 631.431C48.1132 634.75 45.4171 637.446 42.0981 673.526C38.779 637.446 36.0829 634.75 0.00268555 631.431C36.0829 628.111 38.779 625.415 42.0981 589.335Z" fill="#63FFB1" fill-opacity="0.8"/>
<path d="M42.0981 505.144C45.4171 541.225 48.1132 543.921 84.1934 547.24C48.1132 550.559 45.4171 553.255 42.0981 589.335C38.779 553.255 36.0829 550.559 0.00268555 547.24C36.0829 543.921 38.779 541.225 42.0981 505.144Z" fill="#63FFB1" fill-opacity="0.8"/>
<path d="M42.0981 420.954C45.4171 457.034 48.1132 459.73 84.1934 463.049C48.1132 466.368 45.4171 469.064 42.0981 505.144C38.779 469.064 36.0829 466.368 0.00268555 463.049C36.0829 459.73 38.779 457.034 42.0981 420.954Z" fill="#63FFB1" fill-opacity="0.8"/>
<path d="M42.0981 336.763C45.4171 372.843 48.1132 375.539 84.1934 378.858C48.1132 382.177 45.4171 384.873 42.0981 420.954C38.779 384.873 36.0829 382.177 0.00268555 378.858C36.0829 375.539 38.779 372.843 42.0981 336.763Z" fill="#63FFB1" fill-opacity="0.8"/>
<path d="M42.0981 252.572C45.4171 288.652 48.1132 291.348 84.1934 294.668C48.1132 297.987 45.4171 300.683 42.0981 336.763C38.779 300.683 36.0829 297.987 0.00268555 294.668C36.0829 291.348 38.779 288.652 42.0981 252.572Z" fill="#63FFB1" fill-opacity="0.8"/>
<path d="M42.0981 168.382C45.4171 204.462 48.1132 207.158 84.1934 210.477C48.1132 213.796 45.4171 216.492 42.0981 252.572C38.779 216.492 36.0829 213.796 0.00268555 210.477C36.0829 207.158 38.779 204.462 42.0981 168.382Z" fill="#63FFB1" fill-opacity="0.8"/>
<path d="M42.0981 84.1909C45.4171 120.271 48.1132 122.967 84.1934 126.286C48.1132 129.605 45.4171 132.301 42.0981 168.382C38.779 132.301 36.0829 129.605 0.00268555 126.286C36.0829 122.967 38.779 120.271 42.0981 84.1909Z" fill="#63FFB1" fill-opacity="0.8"/>
<path d="M42.0981 0.000186487C45.4171 36.0804 48.1132 38.7765 84.1934 42.0956C48.1132 45.4146 45.4171 48.1107 42.0981 84.1909C38.779 48.1107 36.0829 45.4146 0.00268555 42.0956C36.0829 38.7765 38.779 36.0804 42.0981 0.000186487Z" fill="#63FFB1" fill-opacity="0.8"/>
<path d="M126.286 1262.86C129.605 1298.94 132.301 1301.64 168.382 1304.96C132.301 1308.28 129.605 1310.97 126.286 1347.05C122.967 1310.97 120.271 1308.28 84.1908 1304.96C120.271 1301.64 122.967 1298.94 126.286 1262.86Z" fill="#63FFB1" fill-opacity="0.8"/>
<path d="M126.286 1178.67C129.605 1214.75 132.301 1217.45 168.382 1220.77C132.301 1224.08 129.605 1226.78 126.286 1262.86C122.967 1226.78 120.271 1224.08 84.191 1220.77C120.271 1217.45 122.967 1214.75 126.286 1178.67Z" fill="#63FFB1" fill-opacity="0.8"/>
<path d="M126.286 1094.48C129.605 1130.56 132.301 1133.26 168.382 1136.58C132.301 1139.89 129.605 1142.59 126.286 1178.67C122.967 1142.59 120.271 1139.89 84.191 1136.58C120.271 1133.26 122.967 1130.56 126.286 1094.48Z" fill="#63FFB1" fill-opacity="0.8"/>
<path d="M126.286 1010.29C129.605 1046.37 132.301 1049.07 168.382 1052.38C132.301 1055.7 129.605 1058.4 126.286 1094.48C122.967 1058.4 120.271 1055.7 84.191 1052.38C120.271 1049.07 122.967 1046.37 126.286 1010.29Z" fill="#63FFB1" fill-opacity="0.8"/>
<path d="M126.286 926.098C129.605 962.178 132.301 964.874 168.382 968.193C132.301 971.513 129.605 974.209 126.286 1010.29C122.967 974.209 120.271 971.513 84.191 968.193C120.271 964.874 122.967 962.178 126.286 926.098Z" fill="#63FFB1" fill-opacity="0.8"/>
<path d="M126.286 841.907C129.605 877.988 132.301 880.684 168.382 884.003C132.301 887.322 129.605 890.018 126.286 926.098C122.967 890.018 120.271 887.322 84.191 884.003C120.271 880.684 122.967 877.988 126.286 841.907Z" fill="#63FFB1" fill-opacity="0.8"/>
<path d="M126.286 757.716C129.605 793.797 132.301 796.493 168.382 799.812C132.301 803.131 129.605 805.827 126.286 841.907C122.967 805.827 120.271 803.131 84.191 799.812C120.271 796.493 122.967 793.797 126.286 757.716Z" fill="#63FFB1" fill-opacity="0.8"/>
<path d="M126.286 673.526C129.605 709.606 132.301 712.302 168.382 715.621C132.301 718.94 129.605 721.636 126.286 757.717C122.967 721.636 120.271 718.94 84.191 715.621C120.271 712.302 122.967 709.606 126.286 673.526Z" fill="#63FFB1" fill-opacity="0.8"/>
<path d="M126.286 589.335C129.605 625.415 132.301 628.111 168.382 631.431C132.301 634.75 129.605 637.446 126.286 673.526C122.967 637.446 120.271 634.75 84.191 631.431C120.271 628.111 122.967 625.415 126.286 589.335Z" fill="#63FFB1" fill-opacity="0.8"/>
<path d="M126.286 505.144C129.605 541.225 132.301 543.921 168.382 547.24C132.301 550.559 129.605 553.255 126.286 589.335C122.967 553.255 120.271 550.559 84.191 547.24C120.271 543.921 122.967 541.225 126.286 505.144Z" fill="#63FFB1" fill-opacity="0.8"/>
<path d="M126.286 420.954C129.605 457.034 132.301 459.73 168.382 463.049C132.301 466.368 129.605 469.064 126.286 505.144C122.967 469.064 120.271 466.368 84.191 463.049C120.271 459.73 122.967 457.034 126.286 420.954Z" fill="#63FFB1" fill-opacity="0.8"/>
<path d="M126.286 336.763C129.605 372.843 132.301 375.539 168.382 378.858C132.301 382.177 129.605 384.873 126.286 420.954C122.967 384.873 120.271 382.177 84.191 378.858C120.271 375.539 122.967 372.843 126.286 336.763Z" fill="#63FFB1" fill-opacity="0.8"/>
<path d="M126.286 252.572C129.605 288.652 132.301 291.348 168.382 294.668C132.301 297.987 129.605 300.683 126.286 336.763C122.967 300.683 120.271 297.987 84.191 294.668C120.271 291.348 122.967 288.652 126.286 252.572Z" fill="#63FFB1" fill-opacity="0.8"/>
<path d="M126.286 168.382C129.605 204.462 132.301 207.158 168.382 210.477C132.301 213.796 129.605 216.492 126.286 252.572C122.967 216.492 120.271 213.796 84.191 210.477C120.271 207.158 122.967 204.462 126.286 168.382Z" fill="#63FFB1" fill-opacity="0.8"/>
<path d="M126.286 84.1907C129.605 120.271 132.301 122.967 168.382 126.286C132.301 129.605 129.605 132.301 126.286 168.381C122.967 132.301 120.271 129.605 84.191 126.286C120.271 122.967 122.967 120.271 126.286 84.1907Z" fill="#63FFB1" fill-opacity="0.8"/>
<path d="M126.286 6.44169e-05C129.605 36.0803 132.301 38.7764 168.382 42.0954C132.301 45.4145 129.605 48.1106 126.286 84.1908C122.967 48.1106 120.271 45.4145 84.191 42.0954C120.271 38.7764 122.967 36.0803 126.286 6.44169e-05Z" fill="#63FFB1" fill-opacity="0.8"/>
<path d="M210.474 1262.86C213.793 1298.94 216.49 1301.64 252.57 1304.96C216.49 1308.28 213.793 1310.97 210.474 1347.05C207.155 1310.97 204.459 1308.28 168.379 1304.96C204.459 1301.64 207.155 1298.94 210.474 1262.86Z" fill="#63FFB1" fill-opacity="0.8"/>
<path d="M210.474 1178.67C213.793 1214.75 216.49 1217.45 252.57 1220.77C216.49 1224.08 213.793 1226.78 210.474 1262.86C207.155 1226.78 204.459 1224.08 168.379 1220.77C204.459 1217.45 207.155 1214.75 210.474 1178.67Z" fill="#63FFB1" fill-opacity="0.8"/>
<path d="M210.474 1094.48C213.793 1130.56 216.49 1133.26 252.57 1136.58C216.49 1139.89 213.793 1142.59 210.474 1178.67C207.155 1142.59 204.459 1139.89 168.379 1136.58C204.459 1133.26 207.155 1130.56 210.474 1094.48Z" fill="#63FFB1" fill-opacity="0.8"/>
<path d="M210.474 1010.29C213.793 1046.37 216.49 1049.07 252.57 1052.38C216.49 1055.7 213.793 1058.4 210.474 1094.48C207.155 1058.4 204.459 1055.7 168.379 1052.38C204.459 1049.07 207.155 1046.37 210.474 1010.29Z" fill="#63FFB1" fill-opacity="0.8"/>
<path d="M210.474 926.098C213.793 962.178 216.49 964.874 252.57 968.193C216.49 971.513 213.793 974.209 210.474 1010.29C207.155 974.209 204.459 971.513 168.379 968.193C204.459 964.874 207.155 962.178 210.474 926.098Z" fill="#63FFB1" fill-opacity="0.8"/>
<path d="M210.474 841.907C213.793 877.988 216.49 880.684 252.57 884.003C216.49 887.322 213.793 890.018 210.474 926.098C207.155 890.018 204.459 887.322 168.379 884.003C204.459 880.684 207.155 877.988 210.474 841.907Z" fill="#63FFB1" fill-opacity="0.8"/>
<path d="M210.474 757.716C213.793 793.797 216.49 796.493 252.57 799.812C216.49 803.131 213.793 805.827 210.474 841.907C207.155 805.827 204.459 803.131 168.379 799.812C204.459 796.493 207.155 793.797 210.474 757.716Z" fill="#63FFB1" fill-opacity="0.8"/>
<path d="M210.474 673.526C213.793 709.606 216.49 712.302 252.57 715.621C216.49 718.94 213.793 721.636 210.474 757.717C207.155 721.636 204.459 718.94 168.379 715.621C204.459 712.302 207.155 709.606 210.474 673.526Z" fill="#63FFB1" fill-opacity="0.8"/>
<path d="M210.474 589.335C213.793 625.415 216.49 628.111 252.57 631.431C216.49 634.75 213.793 637.446 210.474 673.526C207.155 637.446 204.459 634.75 168.379 631.431C204.459 628.111 207.155 625.415 210.474 589.335Z" fill="#63FFB1" fill-opacity="0.8"/>
<path d="M210.474 505.144C213.793 541.225 216.49 543.921 252.57 547.24C216.49 550.559 213.793 553.255 210.474 589.335C207.155 553.255 204.459 550.559 168.379 547.24C204.459 543.921 207.155 541.225 210.474 505.144Z" fill="#63FFB1" fill-opacity="0.8"/>
<path d="M210.474 420.954C213.793 457.034 216.49 459.73 252.57 463.049C216.49 466.368 213.793 469.064 210.474 505.144C207.155 469.064 204.459 466.368 168.379 463.049C204.459 459.73 207.155 457.034 210.474 420.954Z" fill="#63FFB1" fill-opacity="0.8"/>
<path d="M210.474 336.763C213.793 372.843 216.49 375.539 252.57 378.858C216.49 382.177 213.793 384.873 210.474 420.954C207.155 384.873 204.459 382.177 168.379 378.858C204.459 375.539 207.155 372.843 210.474 336.763Z" fill="#63FFB1" fill-opacity="0.8"/>
<path d="M210.474 252.572C213.793 288.652 216.49 291.348 252.57 294.668C216.49 297.987 213.793 300.683 210.474 336.763C207.155 300.683 204.459 297.987 168.379 294.668C204.459 291.348 207.155 288.652 210.474 252.572Z" fill="#63FFB1" fill-opacity="0.8"/>
<path d="M210.474 168.382C213.793 204.462 216.49 207.158 252.57 210.477C216.49 213.796 213.793 216.492 210.474 252.572C207.155 216.492 204.459 213.796 168.379 210.477C204.459 207.158 207.155 204.462 210.474 168.382Z" fill="#63FFB1" fill-opacity="0.8"/>
<path d="M210.474 84.1909C213.793 120.271 216.49 122.967 252.57 126.286C216.49 129.605 213.793 132.301 210.474 168.382C207.155 132.301 204.459 129.605 168.379 126.286C204.459 122.967 207.155 120.271 210.474 84.1909Z" fill="#63FFB1" fill-opacity="0.8"/>
<path d="M210.474 0.000186487C213.793 36.0804 216.49 38.7765 252.57 42.0956C216.49 45.4146 213.793 48.1107 210.474 84.1909C207.155 48.1107 204.459 45.4146 168.379 42.0956C204.459 38.7765 207.155 36.0804 210.474 0.000186487Z" fill="#63FFB1" fill-opacity="0.8"/>
<path d="M294.67 1262.86C297.989 1298.94 300.685 1301.64 336.766 1304.96C300.685 1308.28 297.989 1310.97 294.67 1347.05C291.351 1310.97 288.655 1308.28 252.575 1304.96C288.655 1301.64 291.351 1298.94 294.67 1262.86Z" fill="#63FFB1" fill-opacity="0.8"/>
<path d="M294.67 1178.67C297.989 1214.75 300.685 1217.45 336.766 1220.77C300.685 1224.08 297.989 1226.78 294.67 1262.86C291.351 1226.78 288.655 1224.08 252.575 1220.77C288.655 1217.45 291.351 1214.75 294.67 1178.67Z" fill="#63FFB1" fill-opacity="0.8"/>
<path d="M294.67 1094.48C297.989 1130.56 300.685 1133.26 336.766 1136.58C300.685 1139.89 297.989 1142.59 294.67 1178.67C291.351 1142.59 288.655 1139.89 252.575 1136.58C288.655 1133.26 291.351 1130.56 294.67 1094.48Z" fill="#63FFB1" fill-opacity="0.8"/>
<path d="M294.67 1010.29C297.989 1046.37 300.685 1049.07 336.766 1052.38C300.685 1055.7 297.989 1058.4 294.67 1094.48C291.351 1058.4 288.655 1055.7 252.575 1052.38C288.655 1049.07 291.351 1046.37 294.67 1010.29Z" fill="#63FFB1" fill-opacity="0.8"/>
<path d="M294.67 926.098C297.989 962.178 300.685 964.874 336.766 968.193C300.685 971.513 297.989 974.209 294.67 1010.29C291.351 974.209 288.655 971.513 252.575 968.193C288.655 964.874 291.351 962.178 294.67 926.098Z" fill="#63FFB1" fill-opacity="0.8"/>
<path d="M294.67 841.907C297.989 877.988 300.685 880.684 336.766 884.003C300.685 887.322 297.989 890.018 294.67 926.098C291.351 890.018 288.655 887.322 252.575 884.003C288.655 880.684 291.351 877.988 294.67 841.907Z" fill="#63FFB1" fill-opacity="0.8"/>
<path d="M294.67 757.716C297.989 793.797 300.685 796.493 336.766 799.812C300.685 803.131 297.989 805.827 294.67 841.907C291.351 805.827 288.655 803.131 252.575 799.812C288.655 796.493 291.351 793.797 294.67 757.716Z" fill="#63FFB1" fill-opacity="0.8"/>
<path d="M294.67 673.526C297.989 709.606 300.685 712.302 336.766 715.621C300.685 718.94 297.989 721.636 294.67 757.717C291.351 721.636 288.655 718.94 252.575 715.621C288.655 712.302 291.351 709.606 294.67 673.526Z" fill="#63FFB1" fill-opacity="0.8"/>
<path d="M294.67 589.335C297.989 625.415 300.685 628.111 336.766 631.431C300.685 634.75 297.989 637.446 294.67 673.526C291.351 637.446 288.655 634.75 252.575 631.431C288.655 628.111 291.351 625.415 294.67 589.335Z" fill="#63FFB1" fill-opacity="0.8"/>
<path d="M294.67 505.144C297.989 541.225 300.685 543.921 336.766 547.24C300.685 550.559 297.989 553.255 294.67 589.335C291.351 553.255 288.655 550.559 252.575 547.24C288.655 543.921 291.351 541.225 294.67 505.144Z" fill="#63FFB1" fill-opacity="0.8"/>
<path d="M294.67 420.954C297.989 457.034 300.685 459.73 336.766 463.049C300.685 466.368 297.989 469.064 294.67 505.144C291.351 469.064 288.655 466.368 252.575 463.049C288.655 459.73 291.351 457.034 294.67 420.954Z" fill="#63FFB1" fill-opacity="0.8"/>
<path d="M294.67 336.763C297.989 372.843 300.685 375.539 336.766 378.858C300.685 382.177 297.989 384.873 294.67 420.954C291.351 384.873 288.655 382.177 252.575 378.858C288.655 375.539 291.351 372.843 294.67 336.763Z" fill="#63FFB1" fill-opacity="0.8"/>
<path d="M294.67 252.572C297.989 288.652 300.685 291.348 336.766 294.668C300.685 297.987 297.989 300.683 294.67 336.763C291.351 300.683 288.655 297.987 252.575 294.668C288.655 291.348 291.351 288.652 294.67 252.572Z" fill="#63FFB1" fill-opacity="0.8"/>
<path d="M294.67 168.382C297.989 204.462 300.685 207.158 336.766 210.477C300.685 213.796 297.989 216.492 294.67 252.572C291.351 216.492 288.655 213.796 252.575 210.477C288.655 207.158 291.351 204.462 294.67 168.382Z" fill="#63FFB1" fill-opacity="0.8"/>
<path d="M294.67 84.1909C297.989 120.271 300.685 122.967 336.766 126.286C300.685 129.605 297.989 132.301 294.67 168.382C291.351 132.301 288.655 129.605 252.575 126.286C288.655 122.967 291.351 120.271 294.67 84.1909Z" fill="#63FFB1" fill-opacity="0.8"/>
<path d="M294.67 0.000186487C297.989 36.0804 300.685 38.7765 336.766 42.0956C300.685 45.4146 297.989 48.1107 294.67 84.1909C291.351 48.1107 288.655 45.4146 252.575 42.0956C288.655 38.7765 291.351 36.0804 294.67 0.000186487Z" fill="#63FFB1" fill-opacity="0.8"/>
<path d="M378.858 1262.86C382.177 1298.94 384.873 1301.64 420.954 1304.96C384.873 1308.28 382.177 1310.97 378.858 1347.05C375.539 1310.97 372.843 1308.28 336.763 1304.96C372.843 1301.64 375.539 1298.94 378.858 1262.86Z" fill="#63FFB1" fill-opacity="0.8"/>
<path d="M378.858 1178.67C382.177 1214.75 384.873 1217.45 420.954 1220.77C384.873 1224.08 382.177 1226.78 378.858 1262.86C375.539 1226.78 372.843 1224.08 336.763 1220.77C372.843 1217.45 375.539 1214.75 378.858 1178.67Z" fill="#63FFB1" fill-opacity="0.8"/>
<path d="M378.858 1094.48C382.177 1130.56 384.873 1133.26 420.954 1136.58C384.873 1139.89 382.177 1142.59 378.858 1178.67C375.539 1142.59 372.843 1139.89 336.763 1136.58C372.843 1133.26 375.539 1130.56 378.858 1094.48Z" fill="#63FFB1" fill-opacity="0.8"/>
<path d="M378.858 1010.29C382.177 1046.37 384.873 1049.07 420.954 1052.38C384.873 1055.7 382.177 1058.4 378.858 1094.48C375.539 1058.4 372.843 1055.7 336.763 1052.38C372.843 1049.07 375.539 1046.37 378.858 1010.29Z" fill="#63FFB1" fill-opacity="0.8"/>
<path d="M378.858 926.098C382.177 962.178 384.873 964.874 420.954 968.193C384.873 971.513 382.177 974.209 378.858 1010.29C375.539 974.209 372.843 971.513 336.763 968.193C372.843 964.874 375.539 962.178 378.858 926.098Z" fill="#63FFB1" fill-opacity="0.8"/>
<path d="M378.858 841.907C382.177 877.988 384.873 880.684 420.954 884.003C384.873 887.322 382.177 890.018 378.858 926.098C375.539 890.018 372.843 887.322 336.763 884.003C372.843 880.684 375.539 877.988 378.858 841.907Z" fill="#63FFB1" fill-opacity="0.8"/>
<path d="M378.858 757.716C382.177 793.797 384.873 796.493 420.954 799.812C384.873 803.131 382.177 805.827 378.858 841.907C375.539 805.827 372.843 803.131 336.763 799.812C372.843 796.493 375.539 793.797 378.858 757.716Z" fill="#63FFB1" fill-opacity="0.8"/>
<path d="M378.858 673.526C382.177 709.606 384.873 712.302 420.954 715.621C384.873 718.94 382.177 721.636 378.858 757.717C375.539 721.636 372.843 718.94 336.763 715.621C372.843 712.302 375.539 709.606 378.858 673.526Z" fill="#63FFB1" fill-opacity="0.8"/>
<path d="M378.858 589.335C382.177 625.415 384.873 628.111 420.954 631.431C384.873 634.75 382.177 637.446 378.858 673.526C375.539 637.446 372.843 634.75 336.763 631.431C372.843 628.111 375.539 625.415 378.858 589.335Z" fill="#63FFB1" fill-opacity="0.8"/>
<path d="M378.858 505.144C382.177 541.225 384.873 543.921 420.954 547.24C384.873 550.559 382.177 553.255 378.858 589.335C375.539 553.255 372.843 550.559 336.763 547.24C372.843 543.921 375.539 541.225 378.858 505.144Z" fill="#63FFB1" fill-opacity="0.8"/>
<path d="M378.858 420.954C382.177 457.034 384.873 459.73 420.954 463.049C384.873 466.368 382.177 469.064 378.858 505.144C375.539 469.064 372.843 466.368 336.763 463.049C372.843 459.73 375.539 457.034 378.858 420.954Z" fill="#63FFB1" fill-opacity="0.8"/>
<path d="M378.858 336.763C382.177 372.843 384.873 375.539 420.954 378.858C384.873 382.177 382.177 384.873 378.858 420.954C375.539 384.873 372.843 382.177 336.763 378.858C372.843 375.539 375.539 372.843 378.858 336.763Z" fill="#63FFB1" fill-opacity="0.8"/>
<path d="M378.858 252.572C382.177 288.652 384.873 291.348 420.954 294.668C384.873 297.987 382.177 300.683 378.858 336.763C375.539 300.683 372.843 297.987 336.763 294.668C372.843 291.348 375.539 288.652 378.858 252.572Z" fill="#63FFB1" fill-opacity="0.8"/>
<path d="M378.858 168.382C382.177 204.462 384.873 207.158 420.954 210.477C384.873 213.796 382.177 216.492 378.858 252.572C375.539 216.492 372.843 213.796 336.763 210.477C372.843 207.158 375.539 204.462 378.858 168.382Z" fill="#63FFB1" fill-opacity="0.8"/>
<path d="M378.858 84.1907C382.177 120.271 384.873 122.967 420.954 126.286C384.873 129.605 382.177 132.301 378.858 168.381C375.539 132.301 372.843 129.605 336.763 126.286C372.843 122.967 375.539 120.271 378.858 84.1907Z" fill="#63FFB1" fill-opacity="0.8"/>
<path d="M378.858 6.44169e-05C382.177 36.0803 384.873 38.7764 420.954 42.0954C384.873 45.4145 382.177 48.1106 378.858 84.1908C375.539 48.1106 372.843 45.4145 336.763 42.0954C372.843 38.7764 375.539 36.0803 378.858 6.44169e-05Z" fill="#63FFB1" fill-opacity="0.8"/>
<path d="M463.046 1262.86C466.366 1298.94 469.062 1301.64 505.142 1304.96C469.062 1308.28 466.366 1310.97 463.046 1347.05C459.727 1310.97 457.031 1308.28 420.951 1304.96C457.031 1301.64 459.727 1298.94 463.046 1262.86Z" fill="#63FFB1" fill-opacity="0.8"/>
<path d="M463.046 1178.67C466.366 1214.75 469.062 1217.45 505.142 1220.77C469.062 1224.08 466.366 1226.78 463.046 1262.86C459.727 1226.78 457.031 1224.08 420.951 1220.77C457.031 1217.45 459.727 1214.75 463.046 1178.67Z" fill="#63FFB1" fill-opacity="0.8"/>
<path d="M463.046 1094.48C466.366 1130.56 469.062 1133.26 505.142 1136.58C469.062 1139.89 466.366 1142.59 463.046 1178.67C459.727 1142.59 457.031 1139.89 420.951 1136.58C457.031 1133.26 459.727 1130.56 463.046 1094.48Z" fill="#63FFB1" fill-opacity="0.8"/>
<path d="M463.046 1010.29C466.366 1046.37 469.062 1049.07 505.142 1052.38C469.062 1055.7 466.366 1058.4 463.046 1094.48C459.727 1058.4 457.031 1055.7 420.951 1052.38C457.031 1049.07 459.727 1046.37 463.046 1010.29Z" fill="#63FFB1" fill-opacity="0.8"/>
<path d="M463.046 926.098C466.366 962.178 469.062 964.874 505.142 968.193C469.062 971.513 466.366 974.209 463.046 1010.29C459.727 974.209 457.031 971.513 420.951 968.193C457.031 964.874 459.727 962.178 463.046 926.098Z" fill="#63FFB1" fill-opacity="0.8"/>
<path d="M463.046 841.907C466.366 877.988 469.062 880.684 505.142 884.003C469.062 887.322 466.366 890.018 463.046 926.098C459.727 890.018 457.031 887.322 420.951 884.003C457.031 880.684 459.727 877.988 463.046 841.907Z" fill="#63FFB1" fill-opacity="0.8"/>
<path d="M463.046 757.716C466.366 793.797 469.062 796.493 505.142 799.812C469.062 803.131 466.366 805.827 463.046 841.907C459.727 805.827 457.031 803.131 420.951 799.812C457.031 796.493 459.727 793.797 463.046 757.716Z" fill="#63FFB1" fill-opacity="0.8"/>
<path d="M463.046 673.526C466.366 709.606 469.062 712.302 505.142 715.621C469.062 718.94 466.366 721.636 463.046 757.717C459.727 721.636 457.031 718.94 420.951 715.621C457.031 712.302 459.727 709.606 463.046 673.526Z" fill="#63FFB1" fill-opacity="0.8"/>
<path d="M463.046 589.335C466.366 625.415 469.062 628.111 505.142 631.431C469.062 634.75 466.366 637.446 463.046 673.526C459.727 637.446 457.031 634.75 420.951 631.431C457.031 628.111 459.727 625.415 463.046 589.335Z" fill="#63FFB1" fill-opacity="0.8"/>
<path d="M463.046 505.144C466.366 541.225 469.062 543.921 505.142 547.24C469.062 550.559 466.366 553.255 463.046 589.335C459.727 553.255 457.031 550.559 420.951 547.24C457.031 543.921 459.727 541.225 463.046 505.144Z" fill="#63FFB1" fill-opacity="0.8"/>
<path d="M463.046 420.954C466.366 457.034 469.062 459.73 505.142 463.049C469.062 466.368 466.366 469.064 463.046 505.144C459.727 469.064 457.031 466.368 420.951 463.049C457.031 459.73 459.727 457.034 463.046 420.954Z" fill="#63FFB1" fill-opacity="0.8"/>
<path d="M463.046 336.763C466.366 372.843 469.062 375.539 505.142 378.858C469.062 382.177 466.366 384.873 463.046 420.954C459.727 384.873 457.031 382.177 420.951 378.858C457.031 375.539 459.727 372.843 463.046 336.763Z" fill="#63FFB1" fill-opacity="0.8"/>
<path d="M463.046 252.572C466.366 288.652 469.062 291.348 505.142 294.668C469.062 297.987 466.366 300.683 463.046 336.763C459.727 300.683 457.031 297.987 420.951 294.668C457.031 291.348 459.727 288.652 463.046 252.572Z" fill="#63FFB1" fill-opacity="0.8"/>
<path d="M463.046 168.382C466.366 204.462 469.062 207.158 505.142 210.477C469.062 213.796 466.366 216.492 463.046 252.572C459.727 216.492 457.031 213.796 420.951 210.477C457.031 207.158 459.727 204.462 463.046 168.382Z" fill="#63FFB1" fill-opacity="0.8"/>
<path d="M463.046 84.1909C466.366 120.271 469.062 122.967 505.142 126.286C469.062 129.605 466.366 132.301 463.046 168.382C459.727 132.301 457.031 129.605 420.951 126.286C457.031 122.967 459.727 120.271 463.046 84.1909Z" fill="#63FFB1" fill-opacity="0.8"/>
<path d="M463.046 0.000186487C466.366 36.0804 469.062 38.7765 505.142 42.0956C469.062 45.4146 466.366 48.1107 463.046 84.1909C459.727 48.1107 457.031 45.4146 420.951 42.0956C457.031 38.7765 459.727 36.0804 463.046 0.000186487Z" fill="#63FFB1" fill-opacity="0.8"/>
<path d="M547.242 1262.86C550.561 1298.94 553.257 1301.64 589.338 1304.96C553.257 1308.28 550.561 1310.97 547.242 1347.05C543.923 1310.97 541.227 1308.28 505.147 1304.96C541.227 1301.64 543.923 1298.94 547.242 1262.86Z" fill="#63FFB1" fill-opacity="0.8"/>
<path d="M547.242 1178.67C550.561 1214.75 553.257 1217.45 589.338 1220.77C553.257 1224.08 550.561 1226.78 547.242 1262.86C543.923 1226.78 541.227 1224.08 505.147 1220.77C541.227 1217.45 543.923 1214.75 547.242 1178.67Z" fill="#63FFB1" fill-opacity="0.8"/>
<path d="M547.242 1094.48C550.561 1130.56 553.257 1133.26 589.338 1136.58C553.257 1139.89 550.561 1142.59 547.242 1178.67C543.923 1142.59 541.227 1139.89 505.147 1136.58C541.227 1133.26 543.923 1130.56 547.242 1094.48Z" fill="#63FFB1" fill-opacity="0.8"/>
<path d="M547.242 1010.29C550.561 1046.37 553.257 1049.07 589.338 1052.38C553.257 1055.7 550.561 1058.4 547.242 1094.48C543.923 1058.4 541.227 1055.7 505.147 1052.38C541.227 1049.07 543.923 1046.37 547.242 1010.29Z" fill="#63FFB1" fill-opacity="0.8"/>
<path d="M547.242 926.098C550.561 962.178 553.257 964.874 589.338 968.193C553.257 971.513 550.561 974.209 547.242 1010.29C543.923 974.209 541.227 971.513 505.147 968.193C541.227 964.874 543.923 962.178 547.242 926.098Z" fill="#63FFB1" fill-opacity="0.8"/>
<path d="M547.242 841.907C550.561 877.988 553.257 880.684 589.338 884.003C553.257 887.322 550.561 890.018 547.242 926.098C543.923 890.018 541.227 887.322 505.147 884.003C541.227 880.684 543.923 877.988 547.242 841.907Z" fill="#63FFB1" fill-opacity="0.8"/>
<path d="M547.242 757.716C550.561 793.797 553.257 796.493 589.338 799.812C553.257 803.131 550.561 805.827 547.242 841.907C543.923 805.827 541.227 803.131 505.147 799.812C541.227 796.493 543.923 793.797 547.242 757.716Z" fill="#63FFB1" fill-opacity="0.8"/>
<path d="M547.242 673.526C550.561 709.606 553.257 712.302 589.338 715.621C553.257 718.94 550.561 721.636 547.242 757.717C543.923 721.636 541.227 718.94 505.147 715.621C541.227 712.302 543.923 709.606 547.242 673.526Z" fill="#63FFB1" fill-opacity="0.8"/>
<path d="M547.242 589.335C550.561 625.415 553.257 628.111 589.338 631.431C553.257 634.75 550.561 637.446 547.242 673.526C543.923 637.446 541.227 634.75 505.147 631.431C541.227 628.111 543.923 625.415 547.242 589.335Z" fill="#63FFB1" fill-opacity="0.8"/>
<path d="M547.242 505.144C550.561 541.225 553.257 543.921 589.338 547.24C553.257 550.559 550.561 553.255 547.242 589.335C543.923 553.255 541.227 550.559 505.147 547.24C541.227 543.921 543.923 541.225 547.242 505.144Z" fill="#63FFB1" fill-opacity="0.8"/>
<path d="M547.242 420.954C550.561 457.034 553.257 459.73 589.338 463.049C553.257 466.368 550.561 469.064 547.242 505.144C543.923 469.064 541.227 466.368 505.147 463.049C541.227 459.73 543.923 457.034 547.242 420.954Z" fill="#63FFB1" fill-opacity="0.8"/>
<path d="M547.242 336.763C550.561 372.843 553.257 375.539 589.338 378.858C553.257 382.177 550.561 384.873 547.242 420.954C543.923 384.873 541.227 382.177 505.147 378.858C541.227 375.539 543.923 372.843 547.242 336.763Z" fill="#63FFB1" fill-opacity="0.8"/>
<path d="M547.242 252.572C550.561 288.652 553.257 291.348 589.338 294.668C553.257 297.987 550.561 300.683 547.242 336.763C543.923 300.683 541.227 297.987 505.147 294.668C541.227 291.348 543.923 288.652 547.242 252.572Z" fill="#63FFB1" fill-opacity="0.8"/>
<path d="M547.242 168.382C550.561 204.462 553.257 207.158 589.338 210.477C553.257 213.796 550.561 216.492 547.242 252.572C543.923 216.492 541.227 213.796 505.147 210.477C541.227 207.158 543.923 204.462 547.242 168.382Z" fill="#63FFB1" fill-opacity="0.8"/>
<path d="M547.242 84.1909C550.561 120.271 553.257 122.967 589.338 126.286C553.257 129.605 550.561 132.301 547.242 168.382C543.923 132.301 541.227 129.605 505.147 126.286C541.227 122.967 543.923 120.271 547.242 84.1909Z" fill="#63FFB1" fill-opacity="0.8"/>
<path d="M547.242 0.000186487C550.561 36.0804 553.257 38.7765 589.338 42.0956C553.257 45.4146 550.561 48.1107 547.242 84.1909C543.923 48.1107 541.227 45.4146 505.147 42.0956C541.227 38.7765 543.923 36.0804 547.242 0.000186487Z" fill="#63FFB1" fill-opacity="0.8"/>
<path d="M631.43 1262.86C634.749 1298.94 637.446 1301.64 673.526 1304.96C637.446 1308.28 634.749 1310.97 631.43 1347.05C628.111 1310.97 625.415 1308.28 589.335 1304.96C625.415 1301.64 628.111 1298.94 631.43 1262.86Z" fill="#63FFB1" fill-opacity="0.8"/>
<path d="M631.43 1178.67C634.749 1214.75 637.445 1217.45 673.526 1220.77C637.445 1224.08 634.749 1226.78 631.43 1262.86C628.111 1226.78 625.415 1224.08 589.335 1220.77C625.415 1217.45 628.111 1214.75 631.43 1178.67Z" fill="#63FFB1" fill-opacity="0.8"/>
<path d="M631.43 1094.48C634.749 1130.56 637.445 1133.26 673.526 1136.58C637.445 1139.89 634.749 1142.59 631.43 1178.67C628.111 1142.59 625.415 1139.89 589.335 1136.58C625.415 1133.26 628.111 1130.56 631.43 1094.48Z" fill="#63FFB1" fill-opacity="0.8"/>
<path d="M631.43 1010.29C634.749 1046.37 637.445 1049.07 673.526 1052.38C637.445 1055.7 634.749 1058.4 631.43 1094.48C628.111 1058.4 625.415 1055.7 589.335 1052.38C625.415 1049.07 628.111 1046.37 631.43 1010.29Z" fill="#63FFB1" fill-opacity="0.8"/>
<path d="M631.43 926.098C634.749 962.178 637.445 964.874 673.526 968.193C637.445 971.513 634.749 974.209 631.43 1010.29C628.111 974.209 625.415 971.513 589.335 968.193C625.415 964.874 628.111 962.178 631.43 926.098Z" fill="#63FFB1" fill-opacity="0.8"/>
<path d="M631.43 841.907C634.749 877.988 637.445 880.684 673.526 884.003C637.445 887.322 634.749 890.018 631.43 926.098C628.111 890.018 625.415 887.322 589.335 884.003C625.415 880.684 628.111 877.988 631.43 841.907Z" fill="#63FFB1" fill-opacity="0.8"/>
<path d="M631.43 757.716C634.749 793.797 637.445 796.493 673.526 799.812C637.445 803.131 634.749 805.827 631.43 841.907C628.111 805.827 625.415 803.131 589.335 799.812C625.415 796.493 628.111 793.797 631.43 757.716Z" fill="#63FFB1" fill-opacity="0.8"/>
<path d="M631.43 673.526C634.749 709.606 637.445 712.302 673.526 715.621C637.445 718.94 634.749 721.636 631.43 757.717C628.111 721.636 625.415 718.94 589.335 715.621C625.415 712.302 628.111 709.606 631.43 673.526Z" fill="#63FFB1" fill-opacity="0.8"/>
<path d="M631.43 589.335C634.749 625.415 637.445 628.111 673.526 631.431C637.445 634.75 634.749 637.446 631.43 673.526C628.111 637.446 625.415 634.75 589.335 631.431C625.415 628.111 628.111 625.415 631.43 589.335Z" fill="#63FFB1" fill-opacity="0.8"/>
<path d="M631.43 505.144C634.749 541.225 637.445 543.921 673.526 547.24C637.445 550.559 634.749 553.255 631.43 589.335C628.111 553.255 625.415 550.559 589.335 547.24C625.415 543.921 628.111 541.225 631.43 505.144Z" fill="#63FFB1" fill-opacity="0.8"/>
<path d="M631.43 420.954C634.749 457.034 637.445 459.73 673.526 463.049C637.445 466.368 634.749 469.064 631.43 505.144C628.111 469.064 625.415 466.368 589.335 463.049C625.415 459.73 628.111 457.034 631.43 420.954Z" fill="#63FFB1" fill-opacity="0.8"/>
<path d="M631.43 336.763C634.749 372.843 637.445 375.539 673.526 378.858C637.445 382.177 634.749 384.873 631.43 420.954C628.111 384.873 625.415 382.177 589.335 378.858C625.415 375.539 628.111 372.843 631.43 336.763Z" fill="#63FFB1" fill-opacity="0.8"/>
<path d="M631.43 252.572C634.749 288.652 637.445 291.348 673.526 294.668C637.445 297.987 634.749 300.683 631.43 336.763C628.111 300.683 625.415 297.987 589.335 294.668C625.415 291.348 628.111 288.652 631.43 252.572Z" fill="#63FFB1" fill-opacity="0.8"/>
<path d="M631.43 168.382C634.749 204.462 637.445 207.158 673.526 210.477C637.445 213.796 634.749 216.492 631.43 252.572C628.111 216.492 625.415 213.796 589.335 210.477C625.415 207.158 628.111 204.462 631.43 168.382Z" fill="#63FFB1" fill-opacity="0.8"/>
<path d="M631.43 84.1907C634.749 120.271 637.445 122.967 673.526 126.286C637.445 129.605 634.749 132.301 631.43 168.381C628.111 132.301 625.415 129.605 589.335 126.286C625.415 122.967 628.111 120.271 631.43 84.1907Z" fill="#63FFB1" fill-opacity="0.8"/>
<path d="M631.43 6.44169e-05C634.749 36.0803 637.445 38.7764 673.526 42.0954C637.445 45.4145 634.749 48.1106 631.43 84.1908C628.111 48.1106 625.415 45.4145 589.335 42.0954C625.415 38.7764 628.111 36.0803 631.43 6.44169e-05Z" fill="#63FFB1" fill-opacity="0.8"/>
</g>
<g style="mix-blend-mode:overlay">
<path d="M715.098 1262.86C718.417 1298.94 721.113 1301.64 757.193 1304.96C721.113 1308.28 718.417 1310.97 715.098 1347.05C711.779 1310.97 709.083 1308.28 673.003 1304.96C709.083 1301.64 711.779 1298.94 715.098 1262.86Z" fill="#63FFB1" fill-opacity="0.8"/>
<path d="M715.098 1178.67C718.417 1214.75 721.113 1217.45 757.193 1220.77C721.113 1224.08 718.417 1226.78 715.098 1262.86C711.779 1226.78 709.083 1224.08 673.003 1220.77C709.083 1217.45 711.779 1214.75 715.098 1178.67Z" fill="#63FFB1" fill-opacity="0.8"/>
<path d="M715.098 1094.48C718.417 1130.56 721.113 1133.26 757.193 1136.58C721.113 1139.89 718.417 1142.59 715.098 1178.67C711.779 1142.59 709.083 1139.89 673.003 1136.58C709.083 1133.26 711.779 1130.56 715.098 1094.48Z" fill="#63FFB1" fill-opacity="0.8"/>
<path d="M715.098 1010.29C718.417 1046.37 721.113 1049.07 757.193 1052.38C721.113 1055.7 718.417 1058.4 715.098 1094.48C711.779 1058.4 709.083 1055.7 673.003 1052.38C709.083 1049.07 711.779 1046.37 715.098 1010.29Z" fill="#63FFB1" fill-opacity="0.8"/>
<path d="M715.098 926.098C718.417 962.178 721.113 964.874 757.193 968.193C721.113 971.513 718.417 974.209 715.098 1010.29C711.779 974.209 709.083 971.513 673.003 968.193C709.083 964.874 711.779 962.178 715.098 926.098Z" fill="#63FFB1" fill-opacity="0.8"/>
<path d="M715.098 841.907C718.417 877.988 721.113 880.684 757.193 884.003C721.113 887.322 718.417 890.018 715.098 926.098C711.779 890.018 709.083 887.322 673.003 884.003C709.083 880.684 711.779 877.988 715.098 841.907Z" fill="#63FFB1" fill-opacity="0.8"/>
<path d="M715.098 757.716C718.417 793.797 721.113 796.493 757.193 799.812C721.113 803.131 718.417 805.827 715.098 841.907C711.779 805.827 709.083 803.131 673.003 799.812C709.083 796.493 711.779 793.797 715.098 757.716Z" fill="#63FFB1" fill-opacity="0.8"/>
<path d="M715.098 673.526C718.417 709.606 721.113 712.302 757.193 715.621C721.113 718.94 718.417 721.636 715.098 757.717C711.779 721.636 709.083 718.94 673.003 715.621C709.083 712.302 711.779 709.606 715.098 673.526Z" fill="#63FFB1" fill-opacity="0.8"/>
<path d="M715.098 589.335C718.417 625.415 721.113 628.111 757.193 631.431C721.113 634.75 718.417 637.446 715.098 673.526C711.779 637.446 709.083 634.75 673.003 631.431C709.083 628.111 711.779 625.415 715.098 589.335Z" fill="#63FFB1" fill-opacity="0.8"/>
<path d="M715.098 505.144C718.417 541.225 721.113 543.921 757.193 547.24C721.113 550.559 718.417 553.255 715.098 589.335C711.779 553.255 709.083 550.559 673.003 547.24C709.083 543.921 711.779 541.225 715.098 505.144Z" fill="#63FFB1" fill-opacity="0.8"/>
<path d="M715.098 420.954C718.417 457.034 721.113 459.73 757.193 463.049C721.113 466.368 718.417 469.064 715.098 505.144C711.779 469.064 709.083 466.368 673.003 463.049C709.083 459.73 711.779 457.034 715.098 420.954Z" fill="#63FFB1" fill-opacity="0.8"/>
<path d="M715.098 336.763C718.417 372.843 721.113 375.539 757.193 378.858C721.113 382.177 718.417 384.873 715.098 420.954C711.779 384.873 709.083 382.177 673.003 378.858C709.083 375.539 711.779 372.843 715.098 336.763Z" fill="#63FFB1" fill-opacity="0.8"/>
<path d="M715.098 252.572C718.417 288.652 721.113 291.348 757.193 294.668C721.113 297.987 718.417 300.683 715.098 336.763C711.779 300.683 709.083 297.987 673.003 294.668C709.083 291.348 711.779 288.652 715.098 252.572Z" fill="#63FFB1" fill-opacity="0.8"/>
<path d="M715.098 168.382C718.417 204.462 721.113 207.158 757.193 210.477C721.113 213.796 718.417 216.492 715.098 252.572C711.779 216.492 709.083 213.796 673.003 210.477C709.083 207.158 711.779 204.462 715.098 168.382Z" fill="#63FFB1" fill-opacity="0.8"/>
<path d="M715.098 84.1909C718.417 120.271 721.113 122.967 757.193 126.286C721.113 129.605 718.417 132.301 715.098 168.382C711.779 132.301 709.083 129.605 673.003 126.286C709.083 122.967 711.779 120.271 715.098 84.1909Z" fill="#63FFB1" fill-opacity="0.8"/>
<path d="M715.098 0.000186487C718.417 36.0804 721.113 38.7765 757.193 42.0956C721.113 45.4146 718.417 48.1107 715.098 84.1909C711.779 48.1107 709.083 45.4146 673.003 42.0956C709.083 38.7765 711.779 36.0804 715.098 0.000186487Z" fill="#63FFB1" fill-opacity="0.8"/>
<path d="M799.286 1262.86C802.605 1298.94 805.301 1301.64 841.382 1304.96C805.301 1308.28 802.605 1310.97 799.286 1347.05C795.967 1310.97 793.271 1308.28 757.191 1304.96C793.271 1301.64 795.967 1298.94 799.286 1262.86Z" fill="#63FFB1" fill-opacity="0.8"/>
<path d="M799.286 1178.67C802.605 1214.75 805.302 1217.45 841.382 1220.77C805.302 1224.08 802.605 1226.78 799.286 1262.86C795.967 1226.78 793.271 1224.08 757.191 1220.77C793.271 1217.45 795.967 1214.75 799.286 1178.67Z" fill="#63FFB1" fill-opacity="0.8"/>
<path d="M799.286 1094.48C802.605 1130.56 805.302 1133.26 841.382 1136.58C805.302 1139.89 802.605 1142.59 799.286 1178.67C795.967 1142.59 793.271 1139.89 757.191 1136.58C793.271 1133.26 795.967 1130.56 799.286 1094.48Z" fill="#63FFB1" fill-opacity="0.8"/>
<path d="M799.286 1010.29C802.605 1046.37 805.302 1049.07 841.382 1052.38C805.302 1055.7 802.605 1058.4 799.286 1094.48C795.967 1058.4 793.271 1055.7 757.191 1052.38C793.271 1049.07 795.967 1046.37 799.286 1010.29Z" fill="#63FFB1" fill-opacity="0.8"/>
<path d="M799.286 926.098C802.605 962.178 805.302 964.874 841.382 968.193C805.302 971.513 802.605 974.209 799.286 1010.29C795.967 974.209 793.271 971.513 757.191 968.193C793.271 964.874 795.967 962.178 799.286 926.098Z" fill="#63FFB1" fill-opacity="0.8"/>
<path d="M799.286 841.907C802.605 877.988 805.302 880.684 841.382 884.003C805.302 887.322 802.605 890.018 799.286 926.098C795.967 890.018 793.271 887.322 757.191 884.003C793.271 880.684 795.967 877.988 799.286 841.907Z" fill="#63FFB1" fill-opacity="0.8"/>
<path d="M799.286 757.716C802.605 793.797 805.302 796.493 841.382 799.812C805.302 803.131 802.605 805.827 799.286 841.907C795.967 805.827 793.271 803.131 757.191 799.812C793.271 796.493 795.967 793.797 799.286 757.716Z" fill="#63FFB1" fill-opacity="0.8"/>
<path d="M799.286 673.526C802.605 709.606 805.302 712.302 841.382 715.621C805.302 718.94 802.605 721.636 799.286 757.717C795.967 721.636 793.271 718.94 757.191 715.621C793.271 712.302 795.967 709.606 799.286 673.526Z" fill="#63FFB1" fill-opacity="0.8"/>
<path d="M799.286 589.335C802.605 625.415 805.302 628.111 841.382 631.431C805.302 634.75 802.605 637.446 799.286 673.526C795.967 637.446 793.271 634.75 757.191 631.431C793.271 628.111 795.967 625.415 799.286 589.335Z" fill="#63FFB1" fill-opacity="0.8"/>
<path d="M799.286 505.144C802.605 541.225 805.302 543.921 841.382 547.24C805.302 550.559 802.605 553.255 799.286 589.335C795.967 553.255 793.271 550.559 757.191 547.24C793.271 543.921 795.967 541.225 799.286 505.144Z" fill="#63FFB1" fill-opacity="0.8"/>
<path d="M799.286 420.954C802.605 457.034 805.302 459.73 841.382 463.049C805.302 466.368 802.605 469.064 799.286 505.144C795.967 469.064 793.271 466.368 757.191 463.049C793.271 459.73 795.967 457.034 799.286 420.954Z" fill="#63FFB1" fill-opacity="0.8"/>
<path d="M799.286 336.763C802.605 372.843 805.302 375.539 841.382 378.858C805.302 382.177 802.605 384.873 799.286 420.954C795.967 384.873 793.271 382.177 757.191 378.858C793.271 375.539 795.967 372.843 799.286 336.763Z" fill="#63FFB1" fill-opacity="0.8"/>
<path d="M799.286 252.572C802.605 288.652 805.302 291.348 841.382 294.668C805.302 297.987 802.605 300.683 799.286 336.763C795.967 300.683 793.271 297.987 757.191 294.668C793.271 291.348 795.967 288.652 799.286 252.572Z" fill="#63FFB1" fill-opacity="0.8"/>
<path d="M799.286 168.382C802.605 204.462 805.302 207.158 841.382 210.477C805.302 213.796 802.605 216.492 799.286 252.572C795.967 216.492 793.271 213.796 757.191 210.477C793.271 207.158 795.967 204.462 799.286 168.382Z" fill="#63FFB1" fill-opacity="0.8"/>
<path d="M799.286 84.1907C802.605 120.271 805.302 122.967 841.382 126.286C805.302 129.605 802.605 132.301 799.286 168.381C795.967 132.301 793.271 129.605 757.191 126.286C793.271 122.967 795.967 120.271 799.286 84.1907Z" fill="#63FFB1" fill-opacity="0.8"/>
<path d="M799.286 6.44169e-05C802.605 36.0803 805.302 38.7764 841.382 42.0954C805.302 45.4145 802.605 48.1106 799.286 84.1908C795.967 48.1106 793.271 45.4145 757.191 42.0954C793.271 38.7764 795.967 36.0803 799.286 6.44169e-05Z" fill="#63FFB1" fill-opacity="0.8"/>
<path d="M883.474 1262.86C886.793 1298.94 889.49 1301.64 925.57 1304.96C889.49 1308.28 886.793 1310.97 883.474 1347.05C880.155 1310.97 877.459 1308.28 841.379 1304.96C877.459 1301.64 880.155 1298.94 883.474 1262.86Z" fill="#63FFB1" fill-opacity="0.8"/>
<path d="M883.474 1178.67C886.793 1214.75 889.49 1217.45 925.57 1220.77C889.49 1224.08 886.793 1226.78 883.474 1262.86C880.155 1226.78 877.459 1224.08 841.379 1220.77C877.459 1217.45 880.155 1214.75 883.474 1178.67Z" fill="#63FFB1" fill-opacity="0.8"/>
<path d="M883.474 1094.48C886.793 1130.56 889.49 1133.26 925.57 1136.58C889.49 1139.89 886.793 1142.59 883.474 1178.67C880.155 1142.59 877.459 1139.89 841.379 1136.58C877.459 1133.26 880.155 1130.56 883.474 1094.48Z" fill="#63FFB1" fill-opacity="0.8"/>
<path d="M883.474 1010.29C886.793 1046.37 889.49 1049.07 925.57 1052.38C889.49 1055.7 886.793 1058.4 883.474 1094.48C880.155 1058.4 877.459 1055.7 841.379 1052.38C877.459 1049.07 880.155 1046.37 883.474 1010.29Z" fill="#63FFB1" fill-opacity="0.8"/>
<path d="M883.474 926.098C886.793 962.178 889.49 964.874 925.57 968.193C889.49 971.513 886.793 974.209 883.474 1010.29C880.155 974.209 877.459 971.513 841.379 968.193C877.459 964.874 880.155 962.178 883.474 926.098Z" fill="#63FFB1" fill-opacity="0.8"/>
<path d="M883.474 841.907C886.793 877.988 889.49 880.684 925.57 884.003C889.49 887.322 886.793 890.018 883.474 926.098C880.155 890.018 877.459 887.322 841.379 884.003C877.459 880.684 880.155 877.988 883.474 841.907Z" fill="#63FFB1" fill-opacity="0.8"/>
<path d="M883.474 757.716C886.793 793.797 889.49 796.493 925.57 799.812C889.49 803.131 886.793 805.827 883.474 841.907C880.155 805.827 877.459 803.131 841.379 799.812C877.459 796.493 880.155 793.797 883.474 757.716Z" fill="#63FFB1" fill-opacity="0.8"/>
<path d="M883.474 673.526C886.793 709.606 889.49 712.302 925.57 715.621C889.49 718.94 886.793 721.636 883.474 757.717C880.155 721.636 877.459 718.94 841.379 715.621C877.459 712.302 880.155 709.606 883.474 673.526Z" fill="#63FFB1" fill-opacity="0.8"/>
<path d="M883.474 589.335C886.793 625.415 889.49 628.111 925.57 631.431C889.49 634.75 886.793 637.446 883.474 673.526C880.155 637.446 877.459 634.75 841.379 631.431C877.459 628.111 880.155 625.415 883.474 589.335Z" fill="#63FFB1" fill-opacity="0.8"/>
<path d="M883.474 505.144C886.793 541.225 889.49 543.921 925.57 547.24C889.49 550.559 886.793 553.255 883.474 589.335C880.155 553.255 877.459 550.559 841.379 547.24C877.459 543.921 880.155 541.225 883.474 505.144Z" fill="#63FFB1" fill-opacity="0.8"/>
<path d="M883.474 420.954C886.793 457.034 889.49 459.73 925.57 463.049C889.49 466.368 886.793 469.064 883.474 505.144C880.155 469.064 877.459 466.368 841.379 463.049C877.459 459.73 880.155 457.034 883.474 420.954Z" fill="#63FFB1" fill-opacity="0.8"/>
<path d="M883.474 336.763C886.793 372.843 889.49 375.539 925.57 378.858C889.49 382.177 886.793 384.873 883.474 420.954C880.155 384.873 877.459 382.177 841.379 378.858C877.459 375.539 880.155 372.843 883.474 336.763Z" fill="#63FFB1" fill-opacity="0.8"/>
<path d="M883.474 252.572C886.793 288.652 889.49 291.348 925.57 294.668C889.49 297.987 886.793 300.683 883.474 336.763C880.155 300.683 877.459 297.987 841.379 294.668C877.459 291.348 880.155 288.652 883.474 252.572Z" fill="#63FFB1" fill-opacity="0.8"/>
<path d="M883.474 168.382C886.793 204.462 889.49 207.158 925.57 210.477C889.49 213.796 886.793 216.492 883.474 252.572C880.155 216.492 877.459 213.796 841.379 210.477C877.459 207.158 880.155 204.462 883.474 168.382Z" fill="#63FFB1" fill-opacity="0.8"/>
<path d="M883.474 84.1909C886.793 120.271 889.49 122.967 925.57 126.286C889.49 129.605 886.793 132.301 883.474 168.382C880.155 132.301 877.459 129.605 841.379 126.286C877.459 122.967 880.155 120.271 883.474 84.1909Z" fill="#63FFB1" fill-opacity="0.8"/>
<path d="M883.474 0.000186487C886.793 36.0804 889.49 38.7765 925.57 42.0956C889.49 45.4146 886.793 48.1107 883.474 84.1909C880.155 48.1107 877.459 45.4146 841.379 42.0956C877.459 38.7765 880.155 36.0804 883.474 0.000186487Z" fill="#63FFB1" fill-opacity="0.8"/>
<path d="M967.67 1262.86C970.989 1298.94 973.685 1301.64 1009.77 1304.96C973.685 1308.28 970.989 1310.97 967.67 1347.05C964.351 1310.97 961.655 1308.28 925.575 1304.96C961.655 1301.64 964.351 1298.94 967.67 1262.86Z" fill="#63FFB1" fill-opacity="0.8"/>
<path d="M967.67 1178.67C970.989 1214.75 973.685 1217.45 1009.77 1220.77C973.685 1224.08 970.989 1226.78 967.67 1262.86C964.351 1226.78 961.655 1224.08 925.575 1220.77C961.655 1217.45 964.351 1214.75 967.67 1178.67Z" fill="#63FFB1" fill-opacity="0.8"/>
<path d="M967.67 1094.48C970.989 1130.56 973.685 1133.26 1009.77 1136.58C973.685 1139.89 970.989 1142.59 967.67 1178.67C964.351 1142.59 961.655 1139.89 925.575 1136.58C961.655 1133.26 964.351 1130.56 967.67 1094.48Z" fill="#63FFB1" fill-opacity="0.8"/>
<path d="M967.67 1010.29C970.989 1046.37 973.685 1049.07 1009.77 1052.38C973.685 1055.7 970.989 1058.4 967.67 1094.48C964.351 1058.4 961.655 1055.7 925.575 1052.38C961.655 1049.07 964.351 1046.37 967.67 1010.29Z" fill="#63FFB1" fill-opacity="0.8"/>
<path d="M967.67 926.098C970.989 962.178 973.685 964.874 1009.77 968.193C973.685 971.513 970.989 974.209 967.67 1010.29C964.351 974.209 961.655 971.513 925.575 968.193C961.655 964.874 964.351 962.178 967.67 926.098Z" fill="#63FFB1" fill-opacity="0.8"/>
<path d="M967.67 841.907C970.989 877.988 973.685 880.684 1009.77 884.003C973.685 887.322 970.989 890.018 967.67 926.098C964.351 890.018 961.655 887.322 925.575 884.003C961.655 880.684 964.351 877.988 967.67 841.907Z" fill="#63FFB1" fill-opacity="0.8"/>
<path d="M967.67 757.716C970.989 793.797 973.685 796.493 1009.77 799.812C973.685 803.131 970.989 805.827 967.67 841.907C964.351 805.827 961.655 803.131 925.575 799.812C961.655 796.493 964.351 793.797 967.67 757.716Z" fill="#63FFB1" fill-opacity="0.8"/>
<path d="M967.67 673.526C970.989 709.606 973.685 712.302 1009.77 715.621C973.685 718.94 970.989 721.636 967.67 757.717C964.351 721.636 961.655 718.94 925.575 715.621C961.655 712.302 964.351 709.606 967.67 673.526Z" fill="#63FFB1" fill-opacity="0.8"/>
<path d="M967.67 589.335C970.989 625.415 973.685 628.111 1009.77 631.431C973.685 634.75 970.989 637.446 967.67 673.526C964.351 637.446 961.655 634.75 925.575 631.431C961.655 628.111 964.351 625.415 967.67 589.335Z" fill="#63FFB1" fill-opacity="0.8"/>
<path d="M967.67 505.144C970.989 541.225 973.685 543.921 1009.77 547.24C973.685 550.559 970.989 553.255 967.67 589.335C964.351 553.255 961.655 550.559 925.575 547.24C961.655 543.921 964.351 541.225 967.67 505.144Z" fill="#63FFB1" fill-opacity="0.8"/>
<path d="M967.67 420.954C970.989 457.034 973.685 459.73 1009.77 463.049C973.685 466.368 970.989 469.064 967.67 505.144C964.351 469.064 961.655 466.368 925.575 463.049C961.655 459.73 964.351 457.034 967.67 420.954Z" fill="#63FFB1" fill-opacity="0.8"/>
<path d="M967.67 336.763C970.989 372.843 973.685 375.539 1009.77 378.858C973.685 382.177 970.989 384.873 967.67 420.954C964.351 384.873 961.655 382.177 925.575 378.858C961.655 375.539 964.351 372.843 967.67 336.763Z" fill="#63FFB1" fill-opacity="0.8"/>
<path d="M967.67 252.572C970.989 288.652 973.685 291.348 1009.77 294.668C973.685 297.987 970.989 300.683 967.67 336.763C964.351 300.683 961.655 297.987 925.575 294.668C961.655 291.348 964.351 288.652 967.67 252.572Z" fill="#63FFB1" fill-opacity="0.8"/>
<path d="M967.67 168.382C970.989 204.462 973.685 207.158 1009.77 210.477C973.685 213.796 970.989 216.492 967.67 252.572C964.351 216.492 961.655 213.796 925.575 210.477C961.655 207.158 964.351 204.462 967.67 168.382Z" fill="#63FFB1" fill-opacity="0.8"/>
<path d="M967.67 84.1909C970.989 120.271 973.685 122.967 1009.77 126.286C973.685 129.605 970.989 132.301 967.67 168.382C964.351 132.301 961.655 129.605 925.575 126.286C961.655 122.967 964.351 120.271 967.67 84.1909Z" fill="#63FFB1" fill-opacity="0.8"/>
<path d="M967.67 0.000186487C970.989 36.0804 973.685 38.7765 1009.77 42.0956C973.685 45.4146 970.989 48.1107 967.67 84.1909C964.351 48.1107 961.655 45.4146 925.575 42.0956C961.655 38.7765 964.351 36.0804 967.67 0.000186487Z" fill="#63FFB1" fill-opacity="0.8"/>
<path d="M1051.86 1262.86C1055.18 1298.94 1057.87 1301.64 1093.95 1304.96C1057.87 1308.28 1055.18 1310.97 1051.86 1347.05C1048.54 1310.97 1045.84 1308.28 1009.76 1304.96C1045.84 1301.64 1048.54 1298.94 1051.86 1262.86Z" fill="#63FFB1" fill-opacity="0.8"/>
<path d="M1051.86 1178.67C1055.18 1214.75 1057.87 1217.45 1093.95 1220.77C1057.87 1224.08 1055.18 1226.78 1051.86 1262.86C1048.54 1226.78 1045.84 1224.08 1009.76 1220.77C1045.84 1217.45 1048.54 1214.75 1051.86 1178.67Z" fill="#63FFB1" fill-opacity="0.8"/>
<path d="M1051.86 1094.48C1055.18 1130.56 1057.87 1133.26 1093.95 1136.58C1057.87 1139.89 1055.18 1142.59 1051.86 1178.67C1048.54 1142.59 1045.84 1139.89 1009.76 1136.58C1045.84 1133.26 1048.54 1130.56 1051.86 1094.48Z" fill="#63FFB1" fill-opacity="0.8"/>
<path d="M1051.86 1010.29C1055.18 1046.37 1057.87 1049.07 1093.95 1052.38C1057.87 1055.7 1055.18 1058.4 1051.86 1094.48C1048.54 1058.4 1045.84 1055.7 1009.76 1052.38C1045.84 1049.07 1048.54 1046.37 1051.86 1010.29Z" fill="#63FFB1" fill-opacity="0.8"/>
<path d="M1051.86 926.098C1055.18 962.178 1057.87 964.874 1093.95 968.193C1057.87 971.513 1055.18 974.209 1051.86 1010.29C1048.54 974.209 1045.84 971.513 1009.76 968.193C1045.84 964.874 1048.54 962.178 1051.86 926.098Z" fill="#63FFB1" fill-opacity="0.8"/>
<path d="M1051.86 841.907C1055.18 877.988 1057.87 880.684 1093.95 884.003C1057.87 887.322 1055.18 890.018 1051.86 926.098C1048.54 890.018 1045.84 887.322 1009.76 884.003C1045.84 880.684 1048.54 877.988 1051.86 841.907Z" fill="#63FFB1" fill-opacity="0.8"/>
<path d="M1051.86 757.716C1055.18 793.797 1057.87 796.493 1093.95 799.812C1057.87 803.131 1055.18 805.827 1051.86 841.907C1048.54 805.827 1045.84 803.131 1009.76 799.812C1045.84 796.493 1048.54 793.797 1051.86 757.716Z" fill="#63FFB1" fill-opacity="0.8"/>
<path d="M1051.86 673.526C1055.18 709.606 1057.87 712.302 1093.95 715.621C1057.87 718.94 1055.18 721.636 1051.86 757.717C1048.54 721.636 1045.84 718.94 1009.76 715.621C1045.84 712.302 1048.54 709.606 1051.86 673.526Z" fill="#63FFB1" fill-opacity="0.8"/>
<path d="M1051.86 589.335C1055.18 625.415 1057.87 628.111 1093.95 631.431C1057.87 634.75 1055.18 637.446 1051.86 673.526C1048.54 637.446 1045.84 634.75 1009.76 631.431C1045.84 628.111 1048.54 625.415 1051.86 589.335Z" fill="#63FFB1" fill-opacity="0.8"/>
<path d="M1051.86 505.144C1055.18 541.225 1057.87 543.921 1093.95 547.24C1057.87 550.559 1055.18 553.255 1051.86 589.335C1048.54 553.255 1045.84 550.559 1009.76 547.24C1045.84 543.921 1048.54 541.225 1051.86 505.144Z" fill="#63FFB1" fill-opacity="0.8"/>
<path d="M1051.86 420.954C1055.18 457.034 1057.87 459.73 1093.95 463.049C1057.87 466.368 1055.18 469.064 1051.86 505.144C1048.54 469.064 1045.84 466.368 1009.76 463.049C1045.84 459.73 1048.54 457.034 1051.86 420.954Z" fill="#63FFB1" fill-opacity="0.8"/>
<path d="M1051.86 336.763C1055.18 372.843 1057.87 375.539 1093.95 378.858C1057.87 382.177 1055.18 384.873 1051.86 420.954C1048.54 384.873 1045.84 382.177 1009.76 378.858C1045.84 375.539 1048.54 372.843 1051.86 336.763Z" fill="#63FFB1" fill-opacity="0.8"/>
<path d="M1051.86 252.572C1055.18 288.652 1057.87 291.348 1093.95 294.668C1057.87 297.987 1055.18 300.683 1051.86 336.763C1048.54 300.683 1045.84 297.987 1009.76 294.668C1045.84 291.348 1048.54 288.652 1051.86 252.572Z" fill="#63FFB1" fill-opacity="0.8"/>
<path d="M1051.86 168.382C1055.18 204.462 1057.87 207.158 1093.95 210.477C1057.87 213.796 1055.18 216.492 1051.86 252.572C1048.54 216.492 1045.84 213.796 1009.76 210.477C1045.84 207.158 1048.54 204.462 1051.86 168.382Z" fill="#63FFB1" fill-opacity="0.8"/>
<path d="M1051.86 84.1907C1055.18 120.271 1057.87 122.967 1093.95 126.286C1057.87 129.605 1055.18 132.301 1051.86 168.381C1048.54 132.301 1045.84 129.605 1009.76 126.286C1045.84 122.967 1048.54 120.271 1051.86 84.1907Z" fill="#63FFB1" fill-opacity="0.8"/>
<path d="M1051.86 6.44169e-05C1055.18 36.0803 1057.87 38.7764 1093.95 42.0954C1057.87 45.4145 1055.18 48.1106 1051.86 84.1908C1048.54 48.1106 1045.84 45.4145 1009.76 42.0954C1045.84 38.7764 1048.54 36.0803 1051.86 6.44169e-05Z" fill="#63FFB1" fill-opacity="0.8"/>
<path d="M1136.05 1262.86C1139.37 1298.94 1142.06 1301.64 1178.14 1304.96C1142.06 1308.28 1139.37 1310.97 1136.05 1347.05C1132.73 1310.97 1130.03 1308.28 1093.95 1304.96C1130.03 1301.64 1132.73 1298.94 1136.05 1262.86Z" fill="#63FFB1" fill-opacity="0.8"/>
<path d="M1136.05 1178.67C1139.37 1214.75 1142.06 1217.45 1178.14 1220.77C1142.06 1224.08 1139.37 1226.78 1136.05 1262.86C1132.73 1226.78 1130.03 1224.08 1093.95 1220.77C1130.03 1217.45 1132.73 1214.75 1136.05 1178.67Z" fill="#63FFB1" fill-opacity="0.8"/>
<path d="M1136.05 1094.48C1139.37 1130.56 1142.06 1133.26 1178.14 1136.58C1142.06 1139.89 1139.37 1142.59 1136.05 1178.67C1132.73 1142.59 1130.03 1139.89 1093.95 1136.58C1130.03 1133.26 1132.73 1130.56 1136.05 1094.48Z" fill="#63FFB1" fill-opacity="0.8"/>
<path d="M1136.05 1010.29C1139.37 1046.37 1142.06 1049.07 1178.14 1052.38C1142.06 1055.7 1139.37 1058.4 1136.05 1094.48C1132.73 1058.4 1130.03 1055.7 1093.95 1052.38C1130.03 1049.07 1132.73 1046.37 1136.05 1010.29Z" fill="#63FFB1" fill-opacity="0.8"/>
<path d="M1136.05 926.098C1139.37 962.178 1142.06 964.874 1178.14 968.193C1142.06 971.513 1139.37 974.209 1136.05 1010.29C1132.73 974.209 1130.03 971.513 1093.95 968.193C1130.03 964.874 1132.73 962.178 1136.05 926.098Z" fill="#63FFB1" fill-opacity="0.8"/>
<path d="M1136.05 841.907C1139.37 877.988 1142.06 880.684 1178.14 884.003C1142.06 887.322 1139.37 890.018 1136.05 926.098C1132.73 890.018 1130.03 887.322 1093.95 884.003C1130.03 880.684 1132.73 877.988 1136.05 841.907Z" fill="#63FFB1" fill-opacity="0.8"/>
<path d="M1136.05 757.716C1139.37 793.797 1142.06 796.493 1178.14 799.812C1142.06 803.131 1139.37 805.827 1136.05 841.907C1132.73 805.827 1130.03 803.131 1093.95 799.812C1130.03 796.493 1132.73 793.797 1136.05 757.716Z" fill="#63FFB1" fill-opacity="0.8"/>
<path d="M1136.05 673.526C1139.37 709.606 1142.06 712.302 1178.14 715.621C1142.06 718.94 1139.37 721.636 1136.05 757.717C1132.73 721.636 1130.03 718.94 1093.95 715.621C1130.03 712.302 1132.73 709.606 1136.05 673.526Z" fill="#63FFB1" fill-opacity="0.8"/>
<path d="M1136.05 589.335C1139.37 625.415 1142.06 628.111 1178.14 631.431C1142.06 634.75 1139.37 637.446 1136.05 673.526C1132.73 637.446 1130.03 634.75 1093.95 631.431C1130.03 628.111 1132.73 625.415 1136.05 589.335Z" fill="#63FFB1" fill-opacity="0.8"/>
<path d="M1136.05 505.144C1139.37 541.225 1142.06 543.921 1178.14 547.24C1142.06 550.559 1139.37 553.255 1136.05 589.335C1132.73 553.255 1130.03 550.559 1093.95 547.24C1130.03 543.921 1132.73 541.225 1136.05 505.144Z" fill="#63FFB1" fill-opacity="0.8"/>
<path d="M1136.05 420.954C1139.37 457.034 1142.06 459.73 1178.14 463.049C1142.06 466.368 1139.37 469.064 1136.05 505.144C1132.73 469.064 1130.03 466.368 1093.95 463.049C1130.03 459.73 1132.73 457.034 1136.05 420.954Z" fill="#63FFB1" fill-opacity="0.8"/>
<path d="M1136.05 336.763C1139.37 372.843 1142.06 375.539 1178.14 378.858C1142.06 382.177 1139.37 384.873 1136.05 420.954C1132.73 384.873 1130.03 382.177 1093.95 378.858C1130.03 375.539 1132.73 372.843 1136.05 336.763Z" fill="#63FFB1" fill-opacity="0.8"/>
<path d="M1136.05 252.572C1139.37 288.652 1142.06 291.348 1178.14 294.668C1142.06 297.987 1139.37 300.683 1136.05 336.763C1132.73 300.683 1130.03 297.987 1093.95 294.668C1130.03 291.348 1132.73 288.652 1136.05 252.572Z" fill="#63FFB1" fill-opacity="0.8"/>
<path d="M1136.05 168.382C1139.37 204.462 1142.06 207.158 1178.14 210.477C1142.06 213.796 1139.37 216.492 1136.05 252.572C1132.73 216.492 1130.03 213.796 1093.95 210.477C1130.03 207.158 1132.73 204.462 1136.05 168.382Z" fill="#63FFB1" fill-opacity="0.8"/>
<path d="M1136.05 84.1909C1139.37 120.271 1142.06 122.967 1178.14 126.286C1142.06 129.605 1139.37 132.301 1136.05 168.382C1132.73 132.301 1130.03 129.605 1093.95 126.286C1130.03 122.967 1132.73 120.271 1136.05 84.1909Z" fill="#63FFB1" fill-opacity="0.8"/>
<path d="M1136.05 0.000186487C1139.37 36.0804 1142.06 38.7765 1178.14 42.0956C1142.06 45.4146 1139.37 48.1107 1136.05 84.1909C1132.73 48.1107 1130.03 45.4146 1093.95 42.0956C1130.03 38.7765 1132.73 36.0804 1136.05 0.000186487Z" fill="#63FFB1" fill-opacity="0.8"/>
<path d="M1220.24 1262.86C1223.56 1298.94 1226.26 1301.64 1262.34 1304.96C1226.26 1308.28 1223.56 1310.97 1220.24 1347.05C1216.92 1310.97 1214.23 1308.28 1178.15 1304.96C1214.23 1301.64 1216.92 1298.94 1220.24 1262.86Z" fill="#63FFB1" fill-opacity="0.8"/>
<path d="M1220.24 1178.67C1223.56 1214.75 1226.26 1217.45 1262.34 1220.77C1226.26 1224.08 1223.56 1226.78 1220.24 1262.86C1216.92 1226.78 1214.23 1224.08 1178.15 1220.77C1214.23 1217.45 1216.92 1214.75 1220.24 1178.67Z" fill="#63FFB1" fill-opacity="0.8"/>
<path d="M1220.24 1094.48C1223.56 1130.56 1226.26 1133.26 1262.34 1136.58C1226.26 1139.89 1223.56 1142.59 1220.24 1178.67C1216.92 1142.59 1214.23 1139.89 1178.15 1136.58C1214.23 1133.26 1216.92 1130.56 1220.24 1094.48Z" fill="#63FFB1" fill-opacity="0.8"/>
<path d="M1220.24 1010.29C1223.56 1046.37 1226.26 1049.07 1262.34 1052.38C1226.26 1055.7 1223.56 1058.4 1220.24 1094.48C1216.92 1058.4 1214.23 1055.7 1178.15 1052.38C1214.23 1049.07 1216.92 1046.37 1220.24 1010.29Z" fill="#63FFB1" fill-opacity="0.8"/>
<path d="M1220.24 926.098C1223.56 962.178 1226.26 964.874 1262.34 968.193C1226.26 971.513 1223.56 974.209 1220.24 1010.29C1216.92 974.209 1214.23 971.513 1178.15 968.193C1214.23 964.874 1216.92 962.178 1220.24 926.098Z" fill="#63FFB1" fill-opacity="0.8"/>
<path d="M1220.24 841.907C1223.56 877.988 1226.26 880.684 1262.34 884.003C1226.26 887.322 1223.56 890.018 1220.24 926.098C1216.92 890.018 1214.23 887.322 1178.15 884.003C1214.23 880.684 1216.92 877.988 1220.24 841.907Z" fill="#63FFB1" fill-opacity="0.8"/>
<path d="M1220.24 757.716C1223.56 793.797 1226.26 796.493 1262.34 799.812C1226.26 803.131 1223.56 805.827 1220.24 841.907C1216.92 805.827 1214.23 803.131 1178.15 799.812C1214.23 796.493 1216.92 793.797 1220.24 757.716Z" fill="#63FFB1" fill-opacity="0.8"/>
<path d="M1220.24 673.526C1223.56 709.606 1226.26 712.302 1262.34 715.621C1226.26 718.94 1223.56 721.636 1220.24 757.717C1216.92 721.636 1214.23 718.94 1178.15 715.621C1214.23 712.302 1216.92 709.606 1220.24 673.526Z" fill="#63FFB1" fill-opacity="0.8"/>
<path d="M1220.24 589.335C1223.56 625.415 1226.26 628.111 1262.34 631.431C1226.26 634.75 1223.56 637.446 1220.24 673.526C1216.92 637.446 1214.23 634.75 1178.15 631.431C1214.23 628.111 1216.92 625.415 1220.24 589.335Z" fill="#63FFB1" fill-opacity="0.8"/>
<path d="M1220.24 505.144C1223.56 541.225 1226.26 543.921 1262.34 547.24C1226.26 550.559 1223.56 553.255 1220.24 589.335C1216.92 553.255 1214.23 550.559 1178.15 547.24C1214.23 543.921 1216.92 541.225 1220.24 505.144Z" fill="#63FFB1" fill-opacity="0.8"/>
<path d="M1220.24 420.954C1223.56 457.034 1226.26 459.73 1262.34 463.049C1226.26 466.368 1223.56 469.064 1220.24 505.144C1216.92 469.064 1214.23 466.368 1178.15 463.049C1214.23 459.73 1216.92 457.034 1220.24 420.954Z" fill="#63FFB1" fill-opacity="0.8"/>
<path d="M1220.24 336.763C1223.56 372.843 1226.26 375.539 1262.34 378.858C1226.26 382.177 1223.56 384.873 1220.24 420.954C1216.92 384.873 1214.23 382.177 1178.15 378.858C1214.23 375.539 1216.92 372.843 1220.24 336.763Z" fill="#63FFB1" fill-opacity="0.8"/>
<path d="M1220.24 252.572C1223.56 288.652 1226.26 291.348 1262.34 294.668C1226.26 297.987 1223.56 300.683 1220.24 336.763C1216.92 300.683 1214.23 297.987 1178.15 294.668C1214.23 291.348 1216.92 288.652 1220.24 252.572Z" fill="#63FFB1" fill-opacity="0.8"/>
<path d="M1220.24 168.382C1223.56 204.462 1226.26 207.158 1262.34 210.477C1226.26 213.796 1223.56 216.492 1220.24 252.572C1216.92 216.492 1214.23 213.796 1178.15 210.477C1214.23 207.158 1216.92 204.462 1220.24 168.382Z" fill="#63FFB1" fill-opacity="0.8"/>
<path d="M1220.24 84.1909C1223.56 120.271 1226.26 122.967 1262.34 126.286C1226.26 129.605 1223.56 132.301 1220.24 168.382C1216.92 132.301 1214.23 129.605 1178.15 126.286C1214.23 122.967 1216.92 120.271 1220.24 84.1909Z" fill="#63FFB1" fill-opacity="0.8"/>
<path d="M1220.24 0.000186487C1223.56 36.0804 1226.26 38.7765 1262.34 42.0956C1226.26 45.4146 1223.56 48.1107 1220.24 84.1909C1216.92 48.1107 1214.23 45.4146 1178.15 42.0956C1214.23 38.7765 1216.92 36.0804 1220.24 0.000186487Z" fill="#63FFB1" fill-opacity="0.8"/>
<path d="M1304.43 1262.86C1307.75 1298.94 1310.45 1301.64 1346.53 1304.96C1310.45 1308.28 1307.75 1310.97 1304.43 1347.05C1301.11 1310.97 1298.42 1308.28 1262.34 1304.96C1298.42 1301.64 1301.11 1298.94 1304.43 1262.86Z" fill="#63FFB1" fill-opacity="0.8"/>
<path d="M1304.43 1178.67C1307.75 1214.75 1310.45 1217.45 1346.53 1220.77C1310.45 1224.08 1307.75 1226.78 1304.43 1262.86C1301.11 1226.78 1298.42 1224.08 1262.33 1220.77C1298.42 1217.45 1301.11 1214.75 1304.43 1178.67Z" fill="#63FFB1" fill-opacity="0.8"/>
<path d="M1304.43 1094.48C1307.75 1130.56 1310.45 1133.26 1346.53 1136.58C1310.45 1139.89 1307.75 1142.59 1304.43 1178.67C1301.11 1142.59 1298.42 1139.89 1262.33 1136.58C1298.42 1133.26 1301.11 1130.56 1304.43 1094.48Z" fill="#63FFB1" fill-opacity="0.8"/>
<path d="M1304.43 1010.29C1307.75 1046.37 1310.45 1049.07 1346.53 1052.38C1310.45 1055.7 1307.75 1058.4 1304.43 1094.48C1301.11 1058.4 1298.42 1055.7 1262.33 1052.38C1298.42 1049.07 1301.11 1046.37 1304.43 1010.29Z" fill="#63FFB1" fill-opacity="0.8"/>
<path d="M1304.43 926.098C1307.75 962.178 1310.45 964.874 1346.53 968.193C1310.45 971.513 1307.75 974.209 1304.43 1010.29C1301.11 974.209 1298.42 971.513 1262.33 968.193C1298.42 964.874 1301.11 962.178 1304.43 926.098Z" fill="#63FFB1" fill-opacity="0.8"/>
<path d="M1304.43 841.907C1307.75 877.988 1310.45 880.684 1346.53 884.003C1310.45 887.322 1307.75 890.018 1304.43 926.098C1301.11 890.018 1298.42 887.322 1262.33 884.003C1298.42 880.684 1301.11 877.988 1304.43 841.907Z" fill="#63FFB1" fill-opacity="0.8"/>
<path d="M1304.43 757.716C1307.75 793.797 1310.45 796.493 1346.53 799.812C1310.45 803.131 1307.75 805.827 1304.43 841.907C1301.11 805.827 1298.42 803.131 1262.33 799.812C1298.42 796.493 1301.11 793.797 1304.43 757.716Z" fill="#63FFB1" fill-opacity="0.8"/>
<path d="M1304.43 673.526C1307.75 709.606 1310.45 712.302 1346.53 715.621C1310.45 718.94 1307.75 721.636 1304.43 757.717C1301.11 721.636 1298.42 718.94 1262.33 715.621C1298.42 712.302 1301.11 709.606 1304.43 673.526Z" fill="#63FFB1" fill-opacity="0.8"/>
<path d="M1304.43 589.335C1307.75 625.415 1310.45 628.111 1346.53 631.431C1310.45 634.75 1307.75 637.446 1304.43 673.526C1301.11 637.446 1298.42 634.75 1262.33 631.431C1298.42 628.111 1301.11 625.415 1304.43 589.335Z" fill="#63FFB1" fill-opacity="0.8"/>
<path d="M1304.43 505.144C1307.75 541.225 1310.45 543.921 1346.53 547.24C1310.45 550.559 1307.75 553.255 1304.43 589.335C1301.11 553.255 1298.42 550.559 1262.33 547.24C1298.42 543.921 1301.11 541.225 1304.43 505.144Z" fill="#63FFB1" fill-opacity="0.8"/>
<path d="M1304.43 420.954C1307.75 457.034 1310.45 459.73 1346.53 463.049C1310.45 466.368 1307.75 469.064 1304.43 505.144C1301.11 469.064 1298.42 466.368 1262.33 463.049C1298.42 459.73 1301.11 457.034 1304.43 420.954Z" fill="#63FFB1" fill-opacity="0.8"/>
<path d="M1304.43 336.763C1307.75 372.843 1310.45 375.539 1346.53 378.858C1310.45 382.177 1307.75 384.873 1304.43 420.954C1301.11 384.873 1298.42 382.177 1262.33 378.858C1298.42 375.539 1301.11 372.843 1304.43 336.763Z" fill="#63FFB1" fill-opacity="0.8"/>
<path d="M1304.43 252.572C1307.75 288.652 1310.45 291.348 1346.53 294.668C1310.45 297.987 1307.75 300.683 1304.43 336.763C1301.11 300.683 1298.42 297.987 1262.33 294.668C1298.42 291.348 1301.11 288.652 1304.43 252.572Z" fill="#63FFB1" fill-opacity="0.8"/>
<path d="M1304.43 168.382C1307.75 204.462 1310.45 207.158 1346.53 210.477C1310.45 213.796 1307.75 216.492 1304.43 252.572C1301.11 216.492 1298.42 213.796 1262.33 210.477C1298.42 207.158 1301.11 204.462 1304.43 168.382Z" fill="#63FFB1" fill-opacity="0.8"/>
<path d="M1304.43 84.1907C1307.75 120.271 1310.45 122.967 1346.53 126.286C1310.45 129.605 1307.75 132.301 1304.43 168.381C1301.11 132.301 1298.42 129.605 1262.33 126.286C1298.42 122.967 1301.11 120.271 1304.43 84.1907Z" fill="#63FFB1" fill-opacity="0.8"/>
<path d="M1304.43 6.44169e-05C1307.75 36.0803 1310.45 38.7764 1346.53 42.0954C1310.45 45.4145 1307.75 48.1106 1304.43 84.1908C1301.11 48.1106 1298.42 45.4145 1262.33 42.0954C1298.42 38.7764 1301.11 36.0803 1304.43 6.44169e-05Z" fill="#63FFB1" fill-opacity="0.8"/>
</g>
</g>
</svg>
