<svg width="183" height="85" viewBox="0 0 183 85" fill="none" xmlns="http://www.w3.org/2000/svg">
<g clip-path="url(#clip0_1857_531)">
<path d="M16.3344 13.1086C16.427 13.4359 16.3509 13.7615 16.2832 14.0822C15.7889 16.4312 14.4979 19.3984 13.7987 21.8333C11.8745 28.5231 9.4264 37.9305 10.1025 44.8418C10.6067 50.0009 14.7409 45.0716 16.0964 43.2813C18.5726 40.0067 20.743 35.7369 22.4986 32.0159C25.4972 25.66 31.8167 12.5862 30.4893 5.81047C30.0694 3.6698 28.2974 1.07619 25.8625 1.1919C18.8867 1.52251 10.124 14.236 7.02125 19.848C2.768 27.5412 -3.21266 43.488 6.3964 49.3694C10.5587 51.9168 14.1127 50.5679 17.1031 47.0932C18.2007 45.8171 23.0358 39.3604 23.497 38.1305C23.702 37.585 23.5615 37.1569 23.6639 36.6461C23.935 35.2939 25.2211 34.0855 26.3187 33.3433C29.157 33.3681 25.4112 36.8957 25.1418 37.9718C24.8541 39.1174 27.3634 40.0364 28.3354 40.0034C31.8927 39.8811 34.5409 33.6458 35.6418 30.7894C35.9592 29.9662 37.3593 26.1229 37.3246 25.5377C37.308 25.2534 36.5592 24.5558 36.5196 23.7095C36.46 22.4416 37.9511 18.5652 38.8189 17.6214C39.4785 16.9039 40.3099 17.3437 40.3248 18.2809C40.3397 19.2182 38.7693 24.2451 38.9892 24.4748C39.8339 24.3227 40.9315 24.0764 41.634 24.7211C43.1664 26.1229 40.7083 29.5133 41.9051 31.2506C43.4457 31.6291 45.4724 28.9413 45.8459 27.6156C46.1253 26.6221 45.917 25.4749 46.1253 24.7575C46.4427 23.6632 48.6346 24.0682 49.4743 23.9773C50.967 23.8153 52.8763 23.0697 54.1243 22.997C54.7888 22.959 55.3889 23.3392 55.3393 24.0516C55.3062 24.5261 54.5177 25.3311 54.3888 26.0816C53.9028 28.9413 57.4337 29.9926 59.6339 29.095C59.133 27.9908 58.6949 27.3544 58.8255 26.0601C59.014 24.1822 61.7365 21.2365 63.6805 22.4912C65.836 23.883 63.4028 27.2817 62.2771 28.6834C63.7069 29.1545 67.0956 26.2072 67.3618 25.0154C67.5155 24.3261 67.3386 21.6961 68.3321 21.3622C70.4579 20.6481 68.9702 24.4087 68.7189 25.298C69.147 25.3972 69.0065 25.1724 69.1437 24.9873C70.1273 23.6549 72.7523 19.8893 74.4318 19.691C75.5806 19.5554 76.103 20.4695 76.5658 20.5142C76.8187 20.539 77.1179 20.3538 77.3907 20.3472C78.7611 20.3208 79.6801 20.3737 81.0108 20.6894C81.4357 20.7902 83.5383 21.4068 83.7499 21.582C84.1565 21.9192 83.9136 22.7375 83.335 22.7557C82.9994 22.7656 80.748 21.8548 79.9826 21.7159C79.2173 21.5771 77.2023 21.1588 76.7659 22.0366C76.4452 22.6829 76.3113 25.2022 75.1029 25.098C73.9805 25.0021 74.4186 22.9673 74.6963 22.2796C74.9012 21.7721 75.8815 21.0035 74.7492 20.9952C73.2135 20.9853 70.4794 25.3526 69.5388 26.5328C68.6858 27.1412 68.2908 26.394 67.9899 26.4667C66.9601 27.8801 64.4739 29.9976 62.682 30.0951C61.9812 30.1331 61.4605 29.7 60.8852 29.7596C60.1033 29.8389 58.9082 30.7183 57.723 30.753C54.7227 30.8423 51.6266 27.3759 53.6846 24.4765C51.5505 24.8319 49.4396 25.4402 47.2411 25.2997C47.5453 27.7561 46.4047 30.0621 44.5136 31.5696C41.9134 33.6409 40.0636 32.3697 40.3083 29.181C40.4752 27.0089 42.5118 24.7972 38.5098 25.8171C37.4221 29.5612 36.1526 33.6458 34.0317 36.942C31.9407 40.1902 28.6181 43.1094 24.8607 39.9935C24.6227 39.7951 24.4376 39.2248 24.2012 39.3339L17.8354 48.1611C11.0927 55.8576 1.51335 50.6406 0.187624 41.5407C-1.50342 29.8819 8.32879 12.3548 16.8518 4.74426C19.1826 2.6631 24.1268 -0.879341 27.3502 0.200087C35.4219 2.90279 30.7356 16.0361 28.4941 21.4977C25.7435 28.2008 19.4603 43.2929 13.8664 47.49C11.8712 48.9876 9.52063 48.5396 8.99827 45.946C7.62956 39.1537 11.1075 26.3345 13.1755 19.5604C13.5854 18.2165 14.6434 14.1996 15.2947 13.2607C15.3889 13.1251 15.4699 12.983 15.6468 12.94L16.3328 13.1086H16.3344ZM62.2324 23.5177C61.6439 23.6516 60.2967 25.136 60.1694 25.751C59.981 26.6651 60.0537 27.6999 60.8753 28.2685C61.7481 27.7396 63.7912 24.4765 63.1978 23.6384C63.0292 23.4004 62.4969 23.4582 62.2324 23.5177Z" fill="#4A35FE"/>
<path d="M94.6966 33.4303C95.1809 32.946 96.505 34.0585 97.1348 34.2949C102.605 36.3512 108.164 31.369 110.437 26.7934C111.984 23.6791 113.014 18.4787 107.959 18.5266C104.063 18.5647 97.396 25.3173 95.1776 28.382C90.4351 34.9313 86.8612 46.2331 92.9179 53.0369C95.6338 56.0884 100.948 56.8653 104.572 55.1049C109.331 52.7923 114.168 41.274 115.677 36.3215C115.951 35.4206 116.657 33.3989 116.7 32.5856C116.809 30.4549 116.146 28.901 116.839 26.4198C117.341 24.6214 119.094 24.4511 119.271 26.038C119.489 28.0018 117.789 31.3541 118.146 32.9394C118.203 33.1857 118.356 33.3841 118.52 33.5675C118.761 33.8271 119.069 33.4651 119.271 33.308C120.416 32.4203 121.094 30.1375 122.863 30.5227C124.722 30.9277 125.121 34.0337 125.22 35.609C125.36 37.7993 124.747 40.5334 125.058 42.5385C125.436 44.985 127.964 43.1221 129.013 42.2212C130.318 41.1021 131.475 39.4639 131.488 37.6803C129.701 38.3382 128.073 37.2769 128.361 35.2983C128.572 33.8386 130.619 33.065 131.739 34.0469L132.645 35.2024C133.085 34.5362 134.68 32.3261 135.389 32.2369C137.079 32.022 136.804 33.5279 136.779 34.7098C141.786 31.0665 143.157 33.7362 142.537 38.8969C142.429 39.7879 141.905 40.7847 142.254 41.6194C143.109 42.1583 144.919 40.4789 145.535 39.9119C146.873 38.682 148.012 37.1827 149.166 35.781C148.552 35.8091 147.919 35.8372 147.311 35.6553C144.719 34.8784 146.691 31.5475 149.447 32.86C150.081 33.1626 150.528 33.8039 151.058 34.2255C152.356 33.9378 153.672 33.675 154.948 33.3047C155.69 33.0898 159.527 31.5641 159.781 31.5988C161.438 31.8352 160.776 34.0916 160.897 35.2834C161.135 37.6224 163.058 37.8456 164.787 36.6885C164.648 35.5264 164.618 34.9561 165.099 33.875C165.613 32.7228 167.266 30.1987 168.665 31.4814C169.969 32.6782 168.137 34.5544 167.501 35.6966C167.78 35.9512 169.142 34.4139 169.404 34.2155C172.366 31.9856 175.839 31.5971 179.456 32.0864C180.028 32.1641 183.925 32.741 182.628 33.7312C182.143 34.0998 179.221 33.2766 178.327 33.2154C173.901 32.9163 172.686 33.4832 169.395 36.0239C167.812 37.2455 167.668 36.9381 165.97 37.3893C165.605 37.4869 164.965 38.0985 164.408 38.3035C160.406 39.7796 159.35 36.1049 159.49 32.8931C156.834 34.3114 153.822 34.8189 150.931 35.5644C149.136 37.6075 146.678 41.1583 144.327 42.5022C142.582 43.5006 140.79 42.9072 140.905 40.74C140.965 39.6209 142.322 34.3924 140.489 34.2106C139.618 34.1246 136.756 36.1231 136.407 36.8984C134.938 43.6477 134.077 51.8666 130.751 57.9894C130.21 58.9829 129.528 60.583 128.124 59.7813C127.468 59.4077 127.67 58.1101 127.691 57.396C127.843 52.3393 129.643 45.2644 132.067 40.8128C132.68 39.6854 134.994 36.9001 135.219 36.2041C135.459 35.4603 135.343 34.3428 135.621 33.5527C135.077 34.3362 133.199 35.9446 132.903 36.6951C132.539 37.6158 132.693 38.9432 132.131 40.216C130.645 43.5733 123.963 48.1522 123.724 41.7319C123.62 38.9763 124.367 36.0388 123.615 33.2568C122.725 29.9689 121.59 32.7824 120.598 33.8056C119.709 34.7214 118.535 35.4487 117.457 34.3792C115.64 40.9086 112.939 48.0382 108.531 53.2766C103.302 59.4903 93.7328 58.32 90.1094 51.0599C86.0198 42.8658 90.316 31.8253 95.9859 25.3851C98.1332 22.9468 103.78 17.7662 106.984 17.391C111.683 16.8422 113.662 19.7284 112.721 24.1155C111.288 30.7971 102.529 39.3168 95.4371 34.8387C94.9908 34.5577 94.1147 34.0139 94.7015 33.4287L94.6966 33.4303ZM166.177 35.533C166.651 34.4701 167.708 33.6204 167.83 32.3972C167.594 32.1013 166.291 34.2486 166.197 34.4767C166.107 34.69 165.775 35.4537 166.179 35.5313L166.177 35.533ZM149.496 34.5428C149.018 33.832 147.917 33.5394 147.349 34.2982C147.98 34.7131 148.787 34.5015 149.496 34.5428ZM131.123 35.0768C130.356 34.28 128.863 35.5875 129.845 36.4355C130.827 37.2836 131.997 35.9843 131.123 35.0768ZM129.012 58.6457C132.146 52.6799 133.548 45.9471 134.629 39.3317C131.662 43.2576 130.116 48.4713 129.372 53.3097C129.147 54.7776 128.906 56.6009 128.858 58.0687C128.851 58.2605 128.719 58.6837 129.013 58.6473L129.012 58.6457Z" fill="#4A35FE"/>
</g>
<path d="M11.3587 83V74.48H16.7107V75.488H11.8747L12.3907 74.96V78.872L11.8747 78.344H16.4947V79.328H11.8747L12.3907 78.8V83H11.3587ZM22.9608 83.192C22.1528 83.192 21.4568 83.016 20.8728 82.664C20.2968 82.304 19.8528 81.792 19.5408 81.128C19.2288 80.464 19.0728 79.672 19.0728 78.752C19.0728 77.832 19.2288 77.04 19.5408 76.376C19.8528 75.704 20.2968 75.188 20.8728 74.828C21.4568 74.468 22.1528 74.288 22.9608 74.288C23.7768 74.288 24.4728 74.468 25.0488 74.828C25.6328 75.188 26.0808 75.704 26.3928 76.376C26.7048 77.04 26.8608 77.832 26.8608 78.752C26.8608 79.672 26.7048 80.464 26.3928 81.128C26.0808 81.792 25.6328 82.304 25.0488 82.664C24.4728 83.016 23.7768 83.192 22.9608 83.192ZM22.9608 82.184C23.5528 82.184 24.0568 82.048 24.4728 81.776C24.8968 81.504 25.2208 81.112 25.4448 80.6C25.6688 80.088 25.7808 79.472 25.7808 78.752C25.7808 78.032 25.6688 77.416 25.4448 76.904C25.2208 76.384 24.8968 75.988 24.4728 75.716C24.0568 75.436 23.5528 75.296 22.9608 75.296C22.3768 75.296 21.8728 75.436 21.4488 75.716C21.0328 75.988 20.7128 76.384 20.4888 76.904C20.2648 77.416 20.1528 78.032 20.1528 78.752C20.1528 79.472 20.2648 80.088 20.4888 80.6C20.7128 81.112 21.0328 81.504 21.4488 81.776C21.8728 82.048 22.3768 82.184 22.9608 82.184ZM32.7439 83.192C32.0879 83.192 31.5159 83.064 31.0279 82.808C30.5479 82.552 30.1759 82.188 29.9119 81.716C29.6559 81.236 29.5279 80.672 29.5279 80.024V74.468H30.5599V80.024C30.5599 80.712 30.7479 81.244 31.1239 81.62C31.5079 81.996 32.0479 82.184 32.7439 82.184C33.4319 82.184 33.9639 81.996 34.3399 81.62C34.7239 81.244 34.9159 80.712 34.9159 80.024V74.468H35.9479V80.024C35.9479 80.672 35.8159 81.236 35.5519 81.716C35.2959 82.188 34.9279 82.552 34.4479 82.808C33.9679 83.064 33.3999 83.192 32.7439 83.192ZM39.3571 83V74.48H40.8211L45.0331 81.968V74.48H46.0651V83H44.5291L40.3891 75.656V83H39.3571ZM49.2407 83V74.48H51.8807C53.1927 74.48 54.2007 74.852 54.9047 75.596C55.6167 76.332 55.9727 77.384 55.9727 78.752C55.9727 80.112 55.6247 81.16 54.9287 81.896C54.2327 82.632 53.2407 83 51.9527 83H49.2407ZM50.2727 81.992H51.8807C52.8807 81.992 53.6327 81.724 54.1367 81.188C54.6407 80.644 54.8927 79.832 54.8927 78.752C54.8927 77.656 54.6407 76.84 54.1367 76.304C53.6327 75.76 52.8807 75.488 51.8807 75.488H50.2727V81.992ZM58.6556 83V74.48H64.0076V75.488H59.6876V78.236H63.8636V79.22H59.6876V81.992H64.1036V83H58.6556ZM66.9688 83V74.48H70.1968C70.7968 74.48 71.3128 74.584 71.7448 74.792C72.1768 75 72.5088 75.3 72.7408 75.692C72.9808 76.076 73.1008 76.532 73.1008 77.06C73.1008 77.444 73.0088 77.788 72.8248 78.092C72.6488 78.388 72.4208 78.624 72.1408 78.8C71.8608 78.976 71.5688 79.072 71.2648 79.088L71.1928 78.98C71.7128 78.98 72.1208 79.1 72.4168 79.34C72.7208 79.58 72.8968 79.964 72.9448 80.492L73.1848 83H72.1408L71.9248 80.6C71.8928 80.248 71.7648 79.988 71.5408 79.82C71.3248 79.652 70.9688 79.568 70.4728 79.568H68.0008V83H66.9688ZM68.0008 78.56H70.3288C70.8488 78.56 71.2608 78.428 71.5648 78.164C71.8688 77.9 72.0208 77.524 72.0208 77.036C72.0208 76.54 71.8648 76.16 71.5528 75.896C71.2408 75.624 70.7888 75.488 70.1968 75.488H68.0008V78.56ZM82.4473 83.192C81.6313 83.192 80.9873 82.996 80.5153 82.604C80.0433 82.204 79.8073 81.64 79.8073 80.912C79.8073 80.544 79.8593 80.22 79.9633 79.94C80.0673 79.652 80.2393 79.376 80.4793 79.112C80.7273 78.848 81.0633 78.568 81.4873 78.272C81.3033 78.032 81.1473 77.808 81.0193 77.6C80.8913 77.384 80.7913 77.168 80.7193 76.952C80.6553 76.736 80.6233 76.504 80.6233 76.256C80.6233 75.64 80.8073 75.16 81.1753 74.816C81.5513 74.464 82.0633 74.288 82.7113 74.288C83.1353 74.288 83.4953 74.364 83.7913 74.516C84.0873 74.66 84.3113 74.868 84.4633 75.14C84.6233 75.412 84.7033 75.736 84.7033 76.112C84.7033 76.568 84.5673 76.98 84.2953 77.348C84.0233 77.708 83.5673 78.1 82.9273 78.524L84.8713 81.008C85.1593 80.608 85.3033 80 85.3033 79.184L86.3113 79.28C86.3033 79.76 86.2233 80.224 86.0713 80.672C85.9273 81.12 85.7393 81.484 85.5073 81.764L86.5273 83H85.3153L84.8713 82.46C84.6393 82.684 84.3193 82.864 83.9113 83C83.5113 83.128 83.0233 83.192 82.4473 83.192ZM82.5673 82.232C82.9753 82.232 83.3153 82.184 83.5873 82.088C83.8593 81.992 84.0633 81.872 84.1993 81.728L82.0873 79.064C81.6553 79.36 81.3473 79.648 81.1633 79.928C80.9793 80.208 80.8873 80.536 80.8873 80.912C80.8873 81.312 81.0193 81.632 81.2833 81.872C81.5553 82.112 81.9833 82.232 82.5673 82.232ZM82.3753 77.792C82.6793 77.6 82.9233 77.424 83.1073 77.264C83.2913 77.096 83.4233 76.924 83.5033 76.748C83.5833 76.572 83.6233 76.384 83.6233 76.184C83.6233 75.896 83.5433 75.676 83.3833 75.524C83.2233 75.372 82.9993 75.296 82.7113 75.296C82.3913 75.296 82.1433 75.38 81.9673 75.548C81.7913 75.716 81.7033 75.952 81.7033 76.256C81.7033 76.416 81.7233 76.576 81.7633 76.736C81.8033 76.888 81.8713 77.048 81.9673 77.216C82.0713 77.384 82.2073 77.576 82.3753 77.792ZM96.5127 83.192C95.7127 83.192 95.0287 83 94.4607 82.616C93.8927 82.232 93.4567 81.708 93.1527 81.044C92.8567 80.372 92.7087 79.608 92.7087 78.752C92.7087 77.896 92.8607 77.132 93.1647 76.46C93.4687 75.788 93.9047 75.26 94.4727 74.876C95.0487 74.484 95.7367 74.288 96.5367 74.288C97.2167 74.288 97.7887 74.412 98.2527 74.66C98.7247 74.908 99.0967 75.244 99.3687 75.668C99.6487 76.092 99.8407 76.568 99.9447 77.096L98.8647 77.168C98.7607 76.616 98.5287 76.168 98.1687 75.824C97.8087 75.472 97.2647 75.296 96.5367 75.296C95.8887 75.296 95.3607 75.456 94.9527 75.776C94.5527 76.096 94.2567 76.52 94.0647 77.048C93.8807 77.568 93.7887 78.136 93.7887 78.752C93.7887 79.4 93.8847 79.984 94.0767 80.504C94.2687 81.016 94.5687 81.424 94.9767 81.728C95.3847 82.032 95.9047 82.184 96.5367 82.184C97.0407 82.184 97.4767 82.072 97.8447 81.848C98.2127 81.616 98.4967 81.308 98.6967 80.924C98.8967 80.54 99.0007 80.124 99.0087 79.676H96.5607V78.692H99.9687V83H99.2007L99.1287 81.032L99.2727 81.2C99.1767 81.584 98.9927 81.928 98.7207 82.232C98.4487 82.528 98.1207 82.764 97.7367 82.94C97.3607 83.108 96.9527 83.192 96.5127 83.192ZM102.875 83V74.48H106.103C106.703 74.48 107.219 74.584 107.651 74.792C108.083 75 108.415 75.3 108.647 75.692C108.887 76.076 109.007 76.532 109.007 77.06C109.007 77.444 108.915 77.788 108.731 78.092C108.555 78.388 108.327 78.624 108.047 78.8C107.767 78.976 107.475 79.072 107.171 79.088L107.099 78.98C107.619 78.98 108.027 79.1 108.323 79.34C108.627 79.58 108.803 79.964 108.851 80.492L109.091 83H108.047L107.831 80.6C107.799 80.248 107.671 79.988 107.447 79.82C107.231 79.652 106.875 79.568 106.379 79.568H103.907V83H102.875ZM103.907 78.56H106.235C106.755 78.56 107.167 78.428 107.471 78.164C107.775 77.9 107.927 77.524 107.927 77.036C107.927 76.54 107.771 76.16 107.459 75.896C107.147 75.624 106.695 75.488 106.103 75.488H103.907V78.56ZM115.286 83.192C114.478 83.192 113.782 83.016 113.198 82.664C112.622 82.304 112.178 81.792 111.866 81.128C111.554 80.464 111.398 79.672 111.398 78.752C111.398 77.832 111.554 77.04 111.866 76.376C112.178 75.704 112.622 75.188 113.198 74.828C113.782 74.468 114.478 74.288 115.286 74.288C116.102 74.288 116.798 74.468 117.374 74.828C117.958 75.188 118.406 75.704 118.718 76.376C119.03 77.04 119.186 77.832 119.186 78.752C119.186 79.672 119.03 80.464 118.718 81.128C118.406 81.792 117.958 82.304 117.374 82.664C116.798 83.016 116.102 83.192 115.286 83.192ZM115.286 82.184C115.878 82.184 116.382 82.048 116.798 81.776C117.222 81.504 117.546 81.112 117.77 80.6C117.994 80.088 118.106 79.472 118.106 78.752C118.106 78.032 117.994 77.416 117.77 76.904C117.546 76.384 117.222 75.988 116.798 75.716C116.382 75.436 115.878 75.296 115.286 75.296C114.702 75.296 114.198 75.436 113.774 75.716C113.358 75.988 113.038 76.384 112.814 76.904C112.59 77.416 112.478 78.032 112.478 78.752C112.478 79.472 112.59 80.088 112.814 80.6C113.038 81.112 113.358 81.504 113.774 81.776C114.198 82.048 114.702 82.184 115.286 82.184ZM125.069 83.192C124.413 83.192 123.841 83.064 123.353 82.808C122.873 82.552 122.501 82.188 122.237 81.716C121.981 81.236 121.853 80.672 121.853 80.024V74.468H122.885V80.024C122.885 80.712 123.073 81.244 123.449 81.62C123.833 81.996 124.373 82.184 125.069 82.184C125.757 82.184 126.289 81.996 126.665 81.62C127.049 81.244 127.241 80.712 127.241 80.024V74.468H128.273V80.024C128.273 80.672 128.141 81.236 127.877 81.716C127.621 82.188 127.253 82.552 126.773 82.808C126.293 83.064 125.725 83.192 125.069 83.192ZM131.682 83V74.48H134.742C135.694 74.48 136.434 74.708 136.962 75.164C137.49 75.62 137.754 76.252 137.754 77.06C137.754 77.604 137.634 78.076 137.394 78.476C137.154 78.868 136.81 79.168 136.362 79.376C135.914 79.584 135.374 79.688 134.742 79.688H132.714V83H131.682ZM132.714 78.68H134.742C135.382 78.68 135.862 78.544 136.182 78.272C136.51 78 136.674 77.596 136.674 77.06C136.674 76.54 136.51 76.148 136.182 75.884C135.862 75.62 135.382 75.488 134.742 75.488H132.714V78.68ZM148.151 83.192C147.391 83.192 146.723 83.016 146.147 82.664C145.571 82.304 145.123 81.792 144.803 81.128C144.483 80.464 144.323 79.672 144.323 78.752C144.323 77.832 144.483 77.04 144.803 76.376C145.123 75.704 145.571 75.188 146.147 74.828C146.723 74.468 147.391 74.288 148.151 74.288C149.183 74.288 149.983 74.548 150.551 75.068C151.119 75.588 151.491 76.296 151.667 77.192L150.575 77.264C150.455 76.656 150.199 76.176 149.807 75.824C149.415 75.472 148.863 75.296 148.151 75.296C147.607 75.296 147.127 75.436 146.711 75.716C146.303 75.988 145.983 76.384 145.751 76.904C145.519 77.416 145.403 78.032 145.403 78.752C145.403 79.472 145.519 80.088 145.751 80.6C145.983 81.112 146.303 81.504 146.711 81.776C147.127 82.048 147.607 82.184 148.151 82.184C148.895 82.184 149.471 81.992 149.879 81.608C150.287 81.216 150.543 80.688 150.647 80.024L151.739 80.096C151.635 80.712 151.431 81.252 151.127 81.716C150.823 82.18 150.419 82.544 149.915 82.808C149.419 83.064 148.831 83.192 148.151 83.192ZM154.548 83V74.48H159.9V75.488H155.58V78.236H159.756V79.22H155.58V81.992H159.996V83H154.548ZM166.302 83.192C165.494 83.192 164.798 83.016 164.214 82.664C163.638 82.304 163.194 81.792 162.882 81.128C162.57 80.464 162.414 79.672 162.414 78.752C162.414 77.832 162.57 77.04 162.882 76.376C163.194 75.704 163.638 75.188 164.214 74.828C164.798 74.468 165.494 74.288 166.302 74.288C167.118 74.288 167.814 74.468 168.39 74.828C168.974 75.188 169.422 75.704 169.734 76.376C170.046 77.04 170.202 77.832 170.202 78.752C170.202 79.672 170.046 80.464 169.734 81.128C169.422 81.792 168.974 82.304 168.39 82.664C167.814 83.016 167.118 83.192 166.302 83.192ZM166.302 82.184C166.894 82.184 167.398 82.048 167.814 81.776C168.238 81.504 168.562 81.112 168.786 80.6C169.01 80.088 169.122 79.472 169.122 78.752C169.122 78.032 169.01 77.416 168.786 76.904C168.562 76.384 168.238 75.988 167.814 75.716C167.398 75.436 166.894 75.296 166.302 75.296C165.718 75.296 165.214 75.436 164.79 75.716C164.374 75.988 164.054 76.384 163.83 76.904C163.606 77.416 163.494 78.032 163.494 78.752C163.494 79.472 163.606 80.088 163.83 80.6C164.054 81.112 164.374 81.504 164.79 81.776C165.214 82.048 165.718 82.184 166.302 82.184Z" fill="#1C1C1C"/>
<defs>
<clipPath id="clip0_1857_531">
<rect width="182.891" height="60" fill="white"/>
</clipPath>
</defs>
</svg>
